<?xml version="1.0" standalone="no"?>
<!DOCTYPE svg PUBLIC "-//W3C//DTD SVG 20010904//EN"
 "http://www.w3.org/TR/2001/REC-SVG-20010904/DTD/svg10.dtd">
<svg version="1.0" xmlns="http://www.w3.org/2000/svg"
 width="720.000000pt" height="720.000000pt" viewBox="0 0 720.000000 720.000000"
 preserveAspectRatio="xMidYMid meet">
<metadata>
Created by potrace 1.14, written by Peter Selinger 2001-2017
</metadata>
<g transform="translate(0.000000,720.000000) scale(0.100000,-0.100000)"
fill="#000000" stroke="none">
<path d="M2809 6316 c-2 -2 -31 -7 -64 -10 -33 -4 -71 -9 -85 -11 -14 -2 -47
-6 -75 -9 -27 -4 -66 -8 -85 -11 -36 -5 -62 -9 -165 -20 -33 -4 -61 -8 -61 -9
-2 -2 -244 -306 -279 -351 -65 -82 -78 -96 -91 -91 -7 3 -108 73 -226 157
-265 189 -265 190 -292 179 -12 -4 -51 -11 -86 -14 -36 -3 -83 -8 -105 -12
-22 -3 -53 -7 -70 -9 -26 -3 -99 -12 -160 -20 -11 -1 -37 -3 -57 -4 l-38 -1 5
-92 c6 -136 16 -322 20 -408 8 -142 16 -325 20 -410 4 -100 13 -286 21 -422
10 -189 16 -296 28 -578 2 -41 7 -140 10 -220 4 -80 9 -154 11 -165 2 -11 4
-24 4 -28 1 -5 4 -6 8 -4 5 3 33 8 64 11 31 4 65 8 75 10 11 2 48 7 84 11 36
3 76 8 90 10 14 2 45 6 70 10 25 3 61 7 80 10 19 2 60 7 90 10 119 13 180 22
185 27 2 2 -1 30 -6 63 -5 33 -11 83 -14 110 -6 55 -14 116 -20 155 -2 14 -6
52 -10 85 -3 33 -7 71 -10 85 -2 14 -7 50 -10 80 -3 30 -8 66 -10 80 -2 14 -7
52 -10 85 -4 33 -8 69 -10 80 -1 11 -6 47 -10 80 -3 33 -9 73 -11 88 -3 17 0
27 5 25 6 -1 90 -64 188 -139 98 -74 194 -148 215 -163 l36 -27 29 38 c15 21
33 43 38 49 6 6 66 81 135 167 68 86 126 154 128 152 5 -5 9 -30 17 -110 3
-27 7 -66 10 -85 3 -19 7 -53 10 -75 2 -22 11 -92 19 -155 8 -63 18 -142 21
-175 11 -97 13 -118 19 -155 6 -38 12 -95 22 -180 3 -30 8 -58 10 -61 2 -4 19
-4 36 0 18 3 44 6 58 6 23 0 24 -3 21 -49 -1 -27 -5 -58 -7 -70 -2 -11 -6 -48
-9 -81 -5 -66 -13 -149 -20 -210 -3 -22 -7 -65 -10 -95 -4 -50 -13 -143 -20
-210 -2 -14 -3 -35 -4 -47 -1 -13 -6 -23 -11 -23 -6 0 -10 6 -8 13 1 6 -2 39
-6 72 -5 33 -10 76 -12 95 -31 259 -33 271 -46 298 -13 25 -46 37 -82 28 -13
-3 -142 -123 -287 -267 -145 -144 -279 -268 -296 -275 -50 -21 -92 -20 -213 8
-25 5 -56 12 -70 14 -107 19 -308 58 -370 71 -41 9 -98 18 -127 20 -45 4 -55
2 -76 -19 -16 -16 -24 -34 -22 -51 2 -14 78 -176 170 -359 192 -383 191 -381
132 -490 -41 -74 -182 -332 -222 -403 -78 -143 -93 -171 -95 -180 -1 -5 -6
-15 -11 -22 -13 -15 -1 -58 23 -79 18 -18 24 -18 141 0 67 10 138 20 157 23
75 9 144 20 190 28 14 3 43 7 65 11 22 3 69 10 105 16 152 24 186 18 246 -40
33 -32 192 -200 318 -337 139 -150 189 -195 216 -195 62 0 82 52 114 290 3 25
8 54 10 65 4 26 14 82 20 120 3 17 12 73 21 125 9 52 18 113 21 135 8 48 26
87 57 115 22 22 102 61 342 172 72 33 141 66 155 73 14 8 64 32 112 55 91 42
108 59 108 109 0 33 -27 59 -82 82 -18 7 -36 17 -39 21 -5 8 85 567 96 596 3
7 8 11 12 9 5 -3 35 -8 68 -12 106 -13 183 -24 210 -29 37 -7 140 -20 147 -18
7 2 12 -11 24 -68 10 -46 6 -30 54 -225 23 -93 44 -178 47 -189 4 -15 11 -17
37 -11 17 3 42 9 56 11 14 3 40 9 59 14 19 5 37 7 39 5 3 -2 12 0 21 5 9 4 36
11 60 15 24 3 53 10 66 15 13 5 43 11 66 15 24 3 52 8 61 11 9 3 25 7 35 9 10
2 38 8 63 14 25 5 59 12 75 15 17 3 45 10 64 16 19 5 37 7 41 5 5 -3 11 -29
15 -58 4 -28 8 -63 10 -77 2 -14 7 -52 11 -85 3 -33 8 -67 9 -75 2 -8 6 -44
10 -80 11 -94 13 -112 19 -140 3 -14 7 -53 10 -88 3 -34 8 -73 12 -86 3 -13 7
-45 9 -72 2 -27 6 -58 8 -69 3 -11 8 -54 12 -95 4 -41 8 -77 10 -80 2 -3 6
-33 10 -67 3 -34 8 -71 10 -82 2 -11 6 -44 9 -73 4 -29 8 -64 11 -78 2 -14 7
-50 10 -80 3 -30 8 -73 11 -95 3 -22 7 -48 7 -58 2 -21 4 -21 75 -6 31 7 62
13 67 15 19 4 230 55 270 65 22 5 49 11 60 14 11 2 67 15 125 30 58 14 114 28
125 30 56 10 80 23 79 41 -2 25 -11 71 -23 112 -5 17 -8 32 -5 32 3 0 0 8 -5
17 -5 10 -11 32 -14 48 -3 17 -17 80 -31 140 -15 61 -41 169 -58 240 -17 72
-41 173 -55 225 -13 52 -25 106 -28 120 -2 14 -11 52 -19 85 -23 89 -86 354
-91 384 -3 14 -9 42 -15 61 -5 19 -6 37 -2 41 4 3 66 18 137 33 72 15 139 30
150 32 11 3 31 7 45 10 14 3 54 12 90 20 36 9 75 17 88 20 43 8 68 13 132 29
36 8 75 17 88 20 17 4 22 10 17 25 -3 10 -7 27 -9 37 -2 11 -11 48 -20 84 -9
35 -18 73 -20 84 -3 11 -14 61 -26 110 -12 50 -23 97 -25 105 -13 65 -69 287
-74 292 -4 4 -22 3 -41 -2 -19 -6 -48 -13 -65 -15 -16 -3 -43 -10 -60 -15 -16
-5 -91 -23 -165 -40 -74 -18 -142 -34 -150 -36 -77 -19 -109 -26 -130 -30 -14
-3 -33 -7 -42 -10 -9 -3 -25 -6 -35 -8 -10 -2 -47 -12 -83 -21 -36 -9 -74 -19
-85 -21 -65 -14 -107 -24 -160 -38 -80 -20 -84 -20 -80 7 4 26 15 105 29 212
4 28 9 61 11 75 2 14 9 61 15 105 6 44 12 89 15 100 2 11 4 23 4 27 1 3 43 7
94 7 50 1 102 3 113 5 12 2 37 7 55 10 53 9 70 13 134 31 72 21 177 65 186 78
4 5 11 7 17 3 5 -3 13 1 16 10 3 8 10 12 16 9 6 -3 13 1 16 9 3 9 9 14 13 12
4 -3 19 5 34 17 15 12 53 42 86 67 33 25 60 51 60 58 1 7 5 11 9 8 4 -2 17 8
29 22 12 15 31 38 42 51 12 13 21 29 21 34 0 6 3 8 6 4 10 -10 121 168 116
186 -1 4 2 7 7 7 7 0 17 21 20 43 0 1 11 28 25 60 14 31 24 57 21 57 -2 0 2
19 11 42 8 22 12 43 9 46 -2 2 0 12 5 21 15 29 33 272 21 295 -2 6 -5 28 -6
50 -1 23 -5 55 -9 71 -3 17 -8 40 -11 53 -5 31 -25 93 -36 114 -5 10 -9 25 -9
33 0 8 -5 15 -10 15 -6 0 -9 3 -9 8 1 4 0 10 -1 15 -1 4 -3 10 -4 15 -1 4 -7
16 -13 27 -6 11 -11 22 -10 25 0 3 -13 27 -30 54 -18 29 -33 44 -37 37 -4 -6
0 -14 9 -17 13 -5 13 -9 3 -22 -11 -13 -10 -15 5 -9 10 4 16 3 12 -2 -3 -6 3
-14 12 -20 10 -6 14 -10 8 -10 -5 0 -18 6 -28 13 -9 7 -33 12 -55 10 l-37 -4
28 16 c15 8 32 12 37 9 14 -9 12 9 -2 23 -13 13 -32 16 -24 4 3 -5 -8 -16 -24
-25 -20 -12 -27 -23 -24 -35 4 -11 3 -13 -3 -5 -12 17 -65 25 -60 10 2 -7 12
-12 22 -12 10 0 19 -6 21 -13 1 -7 0 -8 -3 -2 -2 5 -10 10 -15 10 -6 0 -9 -3
-5 -6 3 -4 0 -13 -8 -21 -18 -18 -19 -34 -2 -31 6 2 11 -5 11 -15 -1 -10 3
-16 10 -14 13 5 9 39 -7 50 -8 6 -6 7 5 3 10 -3 22 2 27 12 6 9 11 14 11 9 0
-4 -6 -16 -12 -27 -11 -16 -9 -22 7 -35 16 -12 16 -14 3 -9 -13 4 -16 1 -13
-15 2 -12 7 -27 10 -34 4 -6 -2 -1 -13 12 -10 13 -24 21 -30 17 -14 -8 -43 4
-36 15 9 15 -13 10 -26 -6 -7 -9 -19 -14 -26 -11 -7 3 -15 0 -18 -7 -3 -7 -4
-3 -3 7 1 10 -3 21 -10 23 -8 3 -10 -5 -7 -24 7 -37 7 -37 44 -18 29 15 34 15
56 0 13 -8 24 -11 24 -5 0 5 5 10 11 10 8 0 8 -4 -1 -15 -8 -9 -18 -12 -29 -7
-9 5 -25 7 -36 6 -11 -2 -33 -5 -49 -7 -17 -2 -33 -12 -37 -23 -4 -10 -8 -13
-8 -6 -1 7 5 21 12 33 10 17 9 22 -8 35 -18 13 -21 13 -33 -3 -13 -17 -13 -17
-10 1 2 10 -2 21 -9 23 -7 2 -10 -3 -8 -14 2 -10 4 -23 4 -30 1 -6 10 -11 21
-10 12 1 18 7 16 14 -3 7 1 10 9 7 12 -5 12 -9 -1 -29 -9 -13 -15 -26 -15 -29
2 -11 -13 -8 -17 3 -2 6 1 11 7 11 6 0 11 4 11 8 0 14 -43 7 -48 -8 -3 -7 0
-10 5 -7 5 3 9 -2 10 -12 1 -10 -4 -18 -11 -18 -13 0 -16 41 -3 53 14 15 7 35
-18 46 -14 6 -25 15 -25 20 0 5 4 7 9 4 5 -4 11 -3 14 1 2 5 2 2 0 -5 -1 -8 3
-12 9 -9 7 2 11 13 10 23 -5 27 -9 29 -29 13 -14 -12 -15 -12 -9 0 6 9 5 12
-4 9 -25 -8 -18 -49 11 -67 23 -14 25 -19 14 -34 -7 -9 -11 -28 -10 -40 2 -15
-2 -24 -11 -24 -7 0 -11 4 -8 8 2 4 -5 7 -16 6 -14 -1 -19 -6 -15 -17 5 -11 3
-12 -6 -3 -12 12 -3 37 10 28 5 -2 9 7 9 20 0 23 -15 32 -43 25 -5 -2 -18 -4
-28 -5 -31 -3 -41 -22 -18 -34 12 -7 20 -19 20 -29 -1 -16 -2 -15 -6 1 -2 9
-9 15 -14 12 -5 -4 -4 -15 2 -28 7 -12 8 -19 4 -15 -5 4 -15 2 -24 -5 -13 -10
-14 -10 -5 3 15 22 15 57 -1 70 -12 10 -14 6 -10 -24 3 -19 1 -37 -3 -40 -5
-3 -9 19 -9 49 0 47 2 52 13 37 16 -21 18 -8 3 19 -8 16 -13 18 -25 9 -7 -7
-11 -16 -8 -22 3 -5 0 -15 -6 -23 -9 -11 -9 -15 -1 -15 6 0 11 -5 11 -11 0 -8
-4 -8 -14 0 -11 9 -13 6 -13 -14 0 -18 3 -23 11 -16 8 6 11 2 12 -14 2 -21 0
-22 -13 -10 -19 20 -40 20 -24 1 9 -11 9 -16 0 -22 -7 -4 -9 -3 -6 3 9 15 -29
47 -45 37 -11 -6 -11 -5 0 8 11 13 9 16 -13 16 -20 0 -23 -3 -14 -14 8 -10 8
-14 0 -14 -6 0 -11 4 -11 9 0 5 -8 8 -17 6 -10 -2 -23 -4 -30 -4 -13 -1 -14
-41 -1 -41 4 0 8 -5 8 -11 0 -8 -5 -8 -15 1 -16 13 -18 10 -9 -14 5 -12 10
-13 25 -5 20 10 22 38 4 51 -6 5 -6 8 2 8 6 0 18 -7 27 -15 17 -17 30 -20 21
-5 -3 6 -1 10 5 10 7 0 10 -6 7 -12 -2 -7 -12 -12 -21 -11 -11 0 -15 -4 -12
-13 3 -8 0 -13 -7 -11 -7 1 -11 -3 -10 -9 1 -6 -8 -9 -20 -8 -12 1 -26 3 -30
3 -5 1 -6 5 -3 10 3 5 -6 9 -19 9 -14 0 -26 -7 -26 -14 -3 -30 -4 -34 -11 -34
-5 0 -13 0 -20 0 -6 0 -3 6 7 14 18 13 18 17 6 40 -8 14 -21 26 -28 26 -10 0
-8 -7 6 -22 l21 -21 -30 -19 c-30 -18 -41 -34 -17 -25 8 3 20 1 28 -5 11 -8
11 -9 -3 -5 -9 3 -18 1 -20 -4 -2 -6 -12 0 -23 12 -11 12 -14 19 -7 15 6 -4
12 -3 12 2 0 17 -13 22 -27 11 -10 -9 -10 -15 -2 -25 8 -10 8 -14 0 -14 -11 0
-15 13 -11 39 1 12 -1 13 -14 2 -14 -11 -14 -15 0 -36 10 -15 22 -22 37 -19
21 4 21 4 2 -5 -11 -4 -25 -5 -30 -1 -10 8 -49 -13 -40 -22 3 -2 -2 -5 -10 -5
-14 0 -19 11 -16 31 1 5 -5 6 -14 3 -8 -4 -15 -2 -15 2 0 5 7 11 15 15 13 5
20 -5 16 -26 -2 -12 13 -9 33 5 18 13 18 15 1 40 l-17 26 -29 -21 c-16 -12
-29 -26 -29 -31 0 -5 -6 -4 -14 2 -11 9 -13 6 -13 -14 0 -18 3 -23 11 -16 9 7
12 3 11 -17 0 -26 -9 -32 -23 -16 -4 4 -1 4 6 0 6 -4 12 -3 12 3 0 5 -9 13
-21 16 -17 6 -18 9 -7 23 11 14 10 15 -7 8 -17 -6 -17 -4 4 18 26 27 19 36 -8
12 -14 -12 -18 -12 -30 1 -12 13 -11 14 8 8 15 -4 23 -2 27 10 5 11 10 13 19
5 9 -8 13 -4 13 15 0 18 -4 23 -12 16 -8 -6 -11 -2 -12 15 -1 13 2 24 8 24 5
0 7 -4 3 -9 -3 -5 4 -13 15 -16 16 -5 18 -10 11 -19 -8 -10 -4 -13 18 -13 28
0 33 6 41 47 1 2 -3 6 -10 8 -6 2 -10 0 -9 -5 5 -28 -2 -33 -26 -17 -14 9 -23
19 -20 22 3 3 11 0 17 -6 14 -14 32 -16 23 -3 -3 6 2 14 11 19 12 7 15 15 9
28 -5 11 -9 32 -10 48 0 16 -5 31 -11 33 -15 5 -10 -63 6 -82 13 -16 12 -17
-32 -19 -20 -1 -24 1 -17 10 7 8 2 12 -16 12 -19 0 -23 -4 -15 -13 8 -9 6 -14
-5 -19 -11 -4 -14 -12 -10 -27 5 -15 4 -19 -4 -15 -6 4 -11 14 -11 22 0 17
-12 18 -28 2 -17 -17 -15 -33 2 -19 11 10 16 8 21 -9 3 -11 11 -18 16 -15 5 4
9 2 9 -3 0 -6 -11 -9 -24 -8 -17 1 -21 4 -15 12 7 8 2 12 -16 12 -19 0 -23 -4
-15 -13 8 -9 6 -14 -5 -19 -9 -3 -14 -10 -10 -15 3 -5 1 -12 -5 -16 -5 -3 -10
-11 -10 -17 0 -6 9 -3 20 7 11 10 17 22 14 26 -3 5 0 9 6 9 7 0 9 -8 4 -22 -6
-19 -5 -21 8 -10 12 10 17 8 25 -11 9 -19 8 -23 -8 -23 -12 0 -15 4 -8 12 7 8
2 12 -16 12 -19 0 -23 -4 -15 -13 8 -9 6 -15 -7 -20 -10 -5 -23 -7 -29 -7 -6
1 -11 -4 -11 -11 0 -8 12 -14 28 -14 18 0 25 5 22 14 -3 7 0 13 7 13 6 0 8 -4
5 -10 -3 -5 -1 -10 4 -10 6 0 11 5 11 10 0 6 5 10 10 10 20 0 10 -17 -17 -29
-21 -10 -24 -14 -13 -21 9 -5 17 -5 21 1 3 5 19 12 35 15 21 3 25 2 14 -5 -8
-5 -17 -8 -21 -5 -4 2 -12 -3 -19 -11 -9 -10 -17 -12 -30 -5 -9 5 -20 6 -24 3
-3 -3 -14 1 -25 11 -17 15 -19 15 -32 -1 -12 -15 -12 -16 3 -10 9 3 22 -1 29
-9 7 -8 18 -13 26 -10 8 3 11 1 8 -5 -4 -5 -16 -7 -27 -3 -14 4 -18 2 -14 -5
4 -6 2 -11 -4 -11 -7 0 -9 8 -4 22 6 19 5 21 -8 10 -12 -10 -17 -8 -26 13 -9
19 -8 23 2 19 15 -6 29 11 33 40 3 15 1 16 -11 7 -12 -10 -16 -8 -21 8 -3 12
-10 21 -14 21 -14 0 -33 -29 -26 -40 10 -16 25 -12 19 5 -8 20 -2 19 18 -4 16
-19 16 -20 -5 -17 -12 1 -34 8 -49 16 -22 10 -25 16 -17 27 7 8 8 13 1 13 -10
0 -37 -29 -31 -33 2 -2 21 -11 41 -22 31 -16 35 -22 25 -34 -10 -12 -9 -14 5
-8 13 4 15 2 11 -10 -4 -9 -2 -14 3 -10 6 3 15 -3 22 -13 10 -16 9 -21 -8 -30
-14 -7 -20 -7 -20 0 0 5 7 10 16 10 8 0 12 5 9 11 -4 6 -9 8 -12 5 -10 -10
-41 38 -35 54 5 13 3 13 -11 1 -16 -12 -15 -15 3 -38 11 -14 20 -31 20 -37 0
-6 -4 -4 -10 4 -5 8 -12 11 -16 7 -4 -3 -1 -15 7 -24 7 -10 9 -15 5 -11 -5 4
-15 0 -22 -10 -8 -9 -14 -12 -14 -5 0 6 5 15 10 18 6 4 8 11 4 16 -3 5 0 16 6
24 8 10 9 15 2 15 -6 0 -14 -5 -17 -10 -5 -8 -11 -7 -21 1 -21 17 -28 5 -27
-46 1 -25 -3 -47 -7 -50 -5 -3 -6 5 -3 17 4 23 4 23 -11 3 -9 -11 -14 -25 -11
-33 3 -8 -4 -6 -19 5 -19 14 -21 21 -12 35 7 12 18 16 30 12 12 -4 16 -2 12 5
-8 12 20 71 34 71 5 0 12 -5 15 -10 7 -11 25 -4 25 9 0 10 -3 11 -174 13 -128
3 -153 1 -171 -14 -28 -22 -26 -62 3 -66 12 -2 22 -7 22 -12 0 -5 -6 -7 -14
-4 -8 3 -17 1 -20 -4 -5 -9 34 -26 41 -18 11 10 8 69 -4 86 -8 12 -10 20 -4
20 6 0 11 -5 11 -11 0 -8 4 -8 15 1 18 15 36 4 28 -18 -6 -15 -5 -15 10 -3 9
7 14 17 11 22 -3 5 0 9 5 9 14 0 13 -11 -3 -33 -9 -11 -20 -15 -31 -10 -12 4
-16 3 -11 -5 4 -6 0 -25 -9 -42 -13 -25 -20 -30 -38 -24 -12 4 -27 7 -34 7 -7
0 -10 4 -7 9 3 4 0 8 -6 8 -26 0 -3 -33 25 -37 82 -11 103 -7 103 22 0 20 -3
23 -14 14 -8 -6 -11 -15 -8 -20 3 -5 0 -9 -5 -9 -14 0 -13 11 3 33 9 11 20 15
31 10 12 -4 16 -3 11 5 -7 12 19 72 33 72 4 0 16 -9 26 -20 15 -16 15 -22 5
-35 -8 -10 -9 -15 -1 -15 6 0 11 -5 11 -11 0 -8 -5 -8 -15 1 -18 15 -20 -1 -2
-19 10 -11 9 -12 -2 -6 -9 5 -12 3 -9 -6 3 -8 14 -13 24 -11 16 2 16 1 4 -7
-8 -5 -12 -13 -9 -16 9 -9 40 6 33 16 -3 5 3 6 12 2 11 -4 13 -8 6 -11 -7 -2
-10 -8 -7 -13 4 -5 -1 -6 -9 -3 -9 4 -16 1 -16 -6 0 -10 -4 -9 -16 1 -13 11
-15 11 -12 -2 1 -7 -2 -14 -7 -14 -5 0 -9 5 -7 11 1 6 -4 17 -12 23 -12 10
-14 8 -12 -11 1 -13 6 -30 11 -38 7 -13 6 -13 -7 -2 -12 10 -16 26 -14 63 3
40 1 47 -10 39 -7 -7 -10 -18 -8 -25 6 -15 -51 -49 -66 -40 -14 8 -13 -8 1
-22 9 -9 17 -6 32 8 23 21 37 24 37 9 0 -6 -3 -9 -8 -8 -4 2 -18 -7 -31 -19
-16 -14 -21 -28 -17 -41 4 -12 1 -24 -6 -28 -19 -12 -38 -14 -38 -3 0 6 7 9
16 7 10 -2 19 2 21 8 4 12 -25 12 -44 1 -7 -4 -10 -15 -7 -25 3 -9 -2 -5 -10
9 -16 28 -44 32 -71 9 -13 -11 -13 -15 -3 -22 10 -7 10 -8 -2 -5 -8 2 -14 10
-12 16 1 6 -2 11 -8 11 -14 0 -13 -23 2 -38 10 -10 10 -17 0 -32 -16 -26 -4
-25 28 1 16 14 19 19 8 15 -10 -3 -18 -1 -18 4 0 6 7 10 16 10 11 0 14 6 9 20
-3 11 -2 20 3 20 6 0 9 -11 7 -25 -1 -16 2 -24 9 -22 6 2 10 15 8 28 -2 22 -2
23 9 5 10 -17 8 -23 -14 -41 -41 -32 -91 -60 -82 -45 6 10 4 12 -9 7 -10 -4
-20 -7 -22 -7 -2 0 -4 -5 -4 -11 0 -5 5 -7 12 -3 7 4 8 3 4 -4 -4 -6 -13 -9
-21 -5 -10 3 -15 -1 -16 -13 0 -12 -3 -14 -6 -6 -4 10 -8 10 -21 0 -13 -11
-14 -11 -7 1 6 11 3 13 -15 8 -31 -8 -74 24 -57 43 10 10 8 12 -5 7 -10 -3
-20 -1 -24 5 -4 6 -3 8 3 5 12 -8 36 17 26 26 -11 12 -25 8 -17 -5 4 -7 3 -8
-4 -4 -17 11 -14 19 15 40 14 11 23 14 19 8 -4 -7 -2 -12 3 -12 6 0 11 -5 11
-11 0 -8 -5 -8 -15 1 -11 9 -15 9 -15 1 0 -16 29 -26 42 -13 7 7 4 18 -7 36
l-18 27 -25 -23 c-14 -13 -22 -17 -18 -10 4 6 2 12 -3 12 -6 0 -11 5 -11 11 0
8 5 8 15 -1 8 -7 15 -8 15 -2 0 14 -28 35 -39 28 -6 -4 -6 -19 -1 -39 11 -39
21 -87 22 -104 1 -7 7 -13 14 -13 20 0 27 -19 7 -19 -32 -1 -156 1 -218 4
-417 18 -568 26 -576 30 -3 3 -9 28 -12 57 -3 29 -9 64 -12 78 -3 14 -8 44
-11 66 -2 23 -7 53 -10 65 -2 13 -7 39 -10 58 -3 18 -7 42 -9 51 -2 10 -7 40
-11 67 -3 26 -8 57 -11 68 -5 26 -10 51 -17 100 -3 22 -8 51 -11 65 -3 14 -8
39 -10 55 -4 28 -7 47 -21 131 -3 20 -8 46 -10 58 -2 11 -7 37 -9 56 -3 19 -7
44 -10 55 -4 21 -11 76 -20 155 -3 25 -7 59 -9 75 -3 17 -7 55 -11 85 -11 100
-18 122 -36 106z m2967 -680 c1 -16 -1 -23 -6 -16 -4 6 -10 11 -14 11 -23 -3
-26 1 -12 20 8 12 12 29 9 38 -3 10 0 9 8 -4 8 -11 14 -33 15 -49z m56 39 c-3
-16 -1 -17 11 -7 12 10 15 10 13 -4 0 -9 5 -19 12 -21 8 -3 10 2 6 14 -5 17
-5 17 6 0 7 -10 9 -21 6 -25 -11 -10 -61 26 -60 43 1 9 -3 14 -10 12 -6 -3 -9
-11 -7 -18 2 -8 3 -21 3 -29 -1 -8 -3 -27 -4 -42 -2 -14 -7 -30 -11 -34 -4 -5
-5 0 -1 11 7 20 7 20 -15 1 -17 -15 -24 -17 -34 -7 -9 9 -9 14 2 20 8 5 20 7
28 4 8 -3 14 2 14 13 3 48 -1 78 -12 84 -6 4 4 7 22 6 27 -2 33 -6 31 -21z
m22 -51 c9 -3 12 -12 9 -22 -5 -14 -3 -14 15 2 12 11 22 16 22 13 0 -4 0 -9 0
-12 0 -3 -3 -5 -7 -6 -5 0 -14 -5 -20 -11 -7 -6 -13 -7 -13 -4 0 4 -8 2 -19
-3 -15 -9 -18 -7 -16 12 5 42 3 41 29 31z m-472 -93 c-8 -4 -13 -11 -12 -15 6
-24 -9 -27 -30 -6 -13 13 -17 21 -8 18 8 -4 21 -2 29 3 8 5 19 9 24 9 6 0 4
-4 -3 -9z m223 -1 c-3 -5 -12 -10 -18 -10 -7 0 -6 4 3 10 19 12 23 12 15 0z
m-235 -60 c0 -5 -4 -10 -10 -10 -5 0 -10 5 -10 10 0 6 5 10 10 10 6 0 10 -4
10 -10z m-177 -26 c8 -9 -4 -35 -13 -29 -5 3 -11 1 -15 -5 -3 -5 -12 -10 -18
-10 -7 0 1 9 16 19 20 13 25 20 15 24 -7 3 -8 6 -2 6 6 1 13 -2 17 -5z m-143
-70 c0 -2 -7 -4 -15 -4 -8 0 -15 4 -15 10 0 5 7 7 15 4 8 -4 15 -8 15 -10z
m-200 -37 c0 -5 -4 -5 -10 -2 -5 3 -10 14 -10 23 0 15 2 15 10 2 5 -8 10 -19
10 -23z m-46 -57 c-6 -6 -10 -2 -11 12 -2 16 1 18 10 9 7 -7 8 -14 1 -21z
m-64 0 c0 -5 -4 -10 -10 -10 -5 0 -10 5 -10 10 0 6 5 10 10 10 6 0 10 -4 10
-10z m-390 -71 c0 -8 4 -8 15 1 18 15 36 4 28 -18 -6 -15 -5 -15 10 -3 9 7 14
17 11 22 -3 5 0 9 5 9 14 0 13 -11 -3 -33 -9 -11 -20 -15 -31 -10 -12 4 -16 3
-12 -5 8 -12 -12 -62 -25 -62 -5 0 -5 8 0 18 11 23 8 58 -8 77 -8 10 -9 15 -1
15 6 0 11 -5 11 -11z m-175 -29 c0 -7 -6 -14 -13 -16 -7 -1 -8 0 -2 3 5 2 10
9 10 14 0 6 -4 7 -10 4 -5 -3 -10 -1 -10 5 0 7 6 10 13 8 6 -3 12 -11 12 -18z
m315 -10 c0 -5 -5 -12 -11 -15 -6 -4 -8 -14 -4 -24 5 -12 4 -13 -6 -4 -10 10
-9 15 1 28 8 10 9 15 1 15 -6 0 -11 4 -11 10 0 5 7 7 15 4 8 -4 15 -10 15 -14z
m-210 -156 c0 -3 -4 -3 -9 1 -5 3 -12 1 -16 -5 -4 -6 -11 -7 -17 -4 -7 5 -9 1
-5 -9 3 -9 1 -19 -6 -23 -7 -4 -9 -4 -5 1 4 4 3 14 -3 22 -11 13 -1 18 25 14
5 -1 6 5 2 14 -4 13 -2 14 14 5 11 -6 20 -13 20 -16z m-405 -920 c9 -14 23
-33 30 -42 48 -58 75 -96 75 -106 0 -10 -59 -184 -77 -226 -3 -8 -5 -18 -5
-22 2 -10 -51 -4 -198 22 -30 6 -68 12 -85 14 -16 3 -45 7 -63 10 -18 3 -52 8
-75 11 -23 4 -45 10 -48 13 -4 4 2 50 12 102 11 52 22 106 24 120 3 14 8 39
11 55 3 17 7 37 8 45 3 16 76 23 278 27 93 2 97 1 113 -23z"/>
<path d="M5756 5655 c-9 -26 -7 -32 5 -12 6 10 9 21 6 23 -2 3 -7 -2 -11 -11z"/>
<path d="M5755 5580 c-3 -5 -1 -10 4 -10 6 0 11 5 11 10 0 6 -2 10 -4 10 -3 0
-8 -4 -11 -10z"/>
<path d="M5836 5611 c-4 -7 -5 -15 -2 -18 9 -9 19 4 14 18 -4 11 -6 11 -12 0z"/>
<path d="M4365 5199 c-11 -17 1 -21 15 -4 8 9 8 15 2 15 -6 0 -14 -5 -17 -11z"/>
<path d="M4816 6281 c-3 -5 -19 -7 -36 -5 -16 2 -30 -1 -30 -7 0 -6 5 -7 12
-3 7 4 8 3 4 -4 -11 -18 -26 -14 -27 6 0 10 -3 12 -6 4 -2 -6 -9 -9 -15 -6 -5
4 -2 -5 7 -20 10 -15 15 -29 12 -32 -3 -3 -8 4 -12 15 -3 12 -11 21 -17 21 -6
0 -8 -3 -5 -7 4 -3 -1 -11 -10 -18 -17 -13 -12 -45 8 -45 9 0 9 3 0 14 -9 10
-8 15 3 19 9 4 13 1 10 -6 -2 -7 4 -13 16 -14 19 -2 26 14 20 42 -1 6 2 6 6 2
4 -4 13 2 19 14 11 19 13 20 28 5 20 -21 22 -20 23 9 2 26 -1 31 -10 16z"/>
<path d="M4866 6283 c-4 -5 -13 -8 -19 -8 -7 0 -12 -9 -12 -19 0 -22 -20 -33
-30 -17 -3 6 -11 11 -16 11 -6 0 -7 -4 -4 -10 3 -5 1 -10 -5 -10 -6 0 -15 -12
-20 -26 -7 -17 -15 -24 -25 -20 -10 4 -22 -5 -34 -24 -14 -24 -20 -27 -30 -17
-11 10 -13 9 -9 -3 8 -26 37 -23 49 4 7 14 16 26 21 26 5 0 7 -4 4 -9 -4 -5
-3 -11 1 -14 5 -2 2 -2 -5 0 -8 1 -12 -3 -9 -9 2 -7 13 -11 23 -10 27 5 29 9
13 29 -12 14 -12 16 0 8 11 -6 13 -4 8 8 -4 12 -2 14 11 10 15 -6 15 -4 4 9
-11 14 -10 17 7 23 11 3 29 0 40 -7 18 -11 23 -10 35 7 13 18 13 21 -1 33 -9
6 -12 12 -6 12 7 0 18 -7 27 -15 17 -17 30 -20 21 -5 -3 6 -1 10 5 10 7 0 10
-6 7 -12 -2 -7 -12 -13 -22 -13 -10 0 -20 -5 -22 -12 -6 -16 48 -6 60 10 5 8
7 5 5 -8 -2 -12 4 -21 15 -23 9 -2 17 2 17 8 0 6 -5 8 -12 4 -6 -4 -8 -3 -5 3
8 13 -31 65 -43 58 -12 -8 -41 6 -34 16 6 11 0 12 -10 2z m-12 -58 c-4 -8 -11
-12 -16 -9 -6 4 -5 10 3 15 19 12 19 11 13 -6z"/>
<path d="M4890 6277 c0 -5 6 -7 13 -4 18 7 27 0 61 -45 27 -36 27 -36 6 -43
-12 -4 -27 -2 -33 4 -16 16 -31 13 -45 -10 -11 -17 -11 -25 3 -45 15 -23 10
-30 -17 -25 -10 1 -10 -16 0 -23 4 -2 16 2 27 10 17 12 18 17 7 35 -7 11 -10
29 -7 39 6 18 8 19 30 4 19 -13 27 -13 44 -2 23 14 27 33 10 44 -6 3 -8 15 -6
26 9 33 -2 49 -24 37 -10 -5 -19 -6 -19 -1 0 4 -11 8 -25 8 -14 0 -25 -4 -25
-9z m80 -17 c0 -5 -5 -10 -11 -10 -5 0 -7 5 -4 10 3 6 8 10 11 10 2 0 4 -4 4
-10z"/>
<path d="M5003 6269 c9 -5 23 -7 30 -3 8 5 7 2 -2 -9 -13 -16 -2 -25 13 -10 3
4 17 8 29 10 17 2 19 1 7 -6 -8 -6 -11 -13 -7 -17 7 -7 37 13 37 26 0 3 -6 7
-12 7 -7 0 -35 3 -63 7 -37 4 -45 3 -32 -5z"/>
<path d="M4683 6263 c-7 -2 -10 -12 -7 -21 5 -15 4 -15 -6 1 -15 24 -34 22
-20 -2 15 -30 12 -38 -6 -13 -15 22 -44 30 -44 12 0 -5 8 -6 17 -3 11 5 9 -1
-6 -16 -19 -19 -21 -25 -10 -32 21 -13 33 -11 20 5 -9 10 -8 15 3 19 9 4 13 1
10 -6 -2 -7 3 -13 13 -14 11 -1 25 12 36 34 19 38 19 43 0 36z"/>
<path d="M4994 6245 c-9 -22 3 -33 32 -29 15 1 35 -3 45 -9 16 -10 21 -8 35
11 8 12 20 19 26 16 6 -4 15 0 20 7 8 12 9 11 5 -1 -2 -8 -12 -15 -22 -15 -10
0 -20 -5 -22 -12 -5 -15 48 -7 60 10 6 8 7 6 3 -5 -6 -20 2 -22 24 -8 10 6 11
10 3 10 -7 0 -13 5 -13 11 0 8 5 8 15 -1 10 -9 15 -9 15 -1 0 9 -14 15 -22 9
-2 -1 -13 4 -25 10 -16 9 -24 9 -29 1 -5 -8 -9 -8 -14 1 -5 8 -13 4 -27 -13
-16 -21 -22 -23 -36 -12 -9 6 -13 16 -9 21 4 4 0 3 -8 -2 -21 -16 -49 -14 -43
3 3 7 2 13 -1 13 -4 0 -9 -7 -12 -15z"/>
<path d="M4558 6229 c-10 -5 -18 -7 -18 -4 0 3 -13 -1 -30 -10 -16 -9 -30 -13
-30 -10 0 3 -9 -3 -21 -14 -12 -11 -27 -17 -35 -14 -13 5 -18 -7 -15 -34 1 -7
-3 -13 -9 -13 -6 0 -9 4 -6 9 3 5 -1 12 -10 15 -13 5 -15 2 -11 -16 6 -22 5
-22 -8 -4 -13 17 -14 16 -13 -13 1 -31 13 -42 21 -18 2 6 4 -4 4 -23 0 -19 -2
-29 -4 -22 -8 21 -20 13 -20 -13 0 -21 2 -23 13 -14 12 10 13 9 8 -5 -13 -33
-29 -9 -29 44 0 31 -5 55 -11 57 -15 5 -46 -26 -39 -38 10 -14 25 -10 19 5 -3
8 -1 17 4 20 5 3 10 -6 10 -19 0 -26 -16 -33 -35 -14 -15 15 -51 2 -49 -17 0
-9 -9 -23 -22 -31 -21 -15 -22 -14 -15 2 5 15 3 15 -15 -3 -12 -12 -22 -26
-22 -31 0 -6 -5 -13 -12 -17 -7 -4 -8 -3 -4 4 4 7 2 12 -4 12 -7 0 -9 -7 -6
-16 3 -9 6 -21 6 -27 0 -6 6 -3 13 8 8 10 19 15 24 12 6 -4 16 0 23 8 7 8 9
15 5 15 -3 0 8 12 25 26 17 15 29 33 26 40 -4 10 0 11 19 2 19 -9 22 -14 14
-25 -8 -9 -8 -13 -1 -13 6 0 16 8 22 18 10 14 11 14 7 1 -3 -9 0 -25 7 -35 11
-16 9 -22 -7 -38 -16 -15 -19 -16 -14 -3 3 8 -2 26 -12 39 -10 13 -16 30 -13
38 4 13 3 13 -11 2 -15 -13 -14 -16 5 -43 12 -16 19 -32 15 -36 -4 -3 -7 -1
-7 5 0 7 -4 12 -9 12 -5 0 -8 -11 -8 -25 0 -21 2 -23 13 -14 12 10 13 9 8 -5
-4 -9 -12 -15 -18 -13 -14 5 -17 48 -4 65 13 15 -4 16 -19 1 -6 -6 -9 -19 -6
-28 4 -11 1 -10 -11 4 -17 20 -17 20 -11 -1 4 -15 0 -24 -11 -28 -14 -5 -15
-4 -5 8 9 11 7 14 -14 14 -24 0 -34 -12 -17 -21 4 -2 1 -2 -7 0 -9 2 -11 -2
-7 -13 3 -8 6 -18 6 -20 0 -2 5 -4 11 -4 5 0 7 5 4 10 -3 6 -1 10 5 10 15 0 8
-22 -8 -28 -6 -2 -19 13 -29 32 -20 42 -28 44 -44 14 -9 -19 -9 -21 2 -11 10
10 17 5 37 -23 23 -34 24 -35 48 -19 13 8 24 12 24 7 0 -5 -10 -13 -22 -19
-12 -5 -17 -12 -12 -15 5 -4 20 1 33 11 20 16 21 19 8 33 -13 13 -13 16 2 25
14 9 20 7 30 -8 7 -12 17 -17 24 -12 7 4 4 -5 -5 -19 -10 -15 -14 -30 -9 -33
5 -3 12 4 16 15 3 11 11 20 17 20 7 0 6 -5 -1 -14 -17 -20 -23 -58 -8 -53 7 2
11 12 9 21 -2 9 4 19 12 22 9 3 13 11 9 17 -3 6 -1 7 6 3 14 -9 43 12 35 25
-3 5 0 9 6 9 7 0 9 -7 6 -16 -4 -10 -2 -14 6 -11 7 2 12 10 11 16 -2 6 2 11 7
11 6 0 10 -4 10 -10 0 -5 5 -10 11 -10 5 0 7 5 4 10 -3 6 -1 10 5 10 7 0 10
-6 7 -12 -2 -7 -12 -13 -22 -13 -10 0 -20 -5 -22 -12 -5 -15 33 -9 53 8 8 6
14 7 14 2 0 -6 -10 -14 -22 -20 -12 -5 -17 -12 -12 -15 5 -4 20 1 33 11 20 16
21 19 8 33 -13 13 -13 16 2 25 14 9 20 7 30 -8 6 -11 16 -17 21 -14 6 3 7 -1
4 -10 -6 -14 -8 -13 -21 5 -25 35 -33 22 -11 -17 21 -35 22 -35 31 -15 6 12
14 22 20 22 5 0 4 -6 -2 -14 -17 -20 -23 -58 -8 -53 7 2 11 12 9 21 -2 9 4 19
12 22 9 3 13 10 10 15 -3 5 3 6 12 2 16 -6 15 -8 -4 -16 -12 -6 -22 -15 -22
-20 0 -6 3 -8 6 -4 4 3 13 0 21 -8 18 -18 34 -19 31 -2 -2 6 6 12 16 12 11 0
21 5 23 12 5 15 -33 9 -53 -8 -8 -6 -14 -7 -14 -2 0 6 10 15 23 20 l22 11 -27
12 c-28 13 -38 30 -18 30 6 0 10 -4 10 -10 0 -5 5 -10 11 -10 5 0 7 5 4 10 -3
6 -1 10 5 10 7 0 9 -7 6 -16 -4 -9 -1 -14 6 -12 6 2 13 13 14 24 3 17 -2 20
-28 20 -34 -1 -49 18 -22 28 14 5 15 4 5 -8 -9 -11 -7 -13 14 -13 24 0 34 11
18 20 -5 2 -1 2 7 0 39 -11 59 -5 57 17 -1 12 -7 18 -14 16 -7 -3 -10 1 -7 9
5 12 9 12 29 -1 39 -26 86 11 54 43 -6 6 -8 21 -4 33 6 18 9 19 23 8 13 -11
15 -11 10 3 -5 13 -2 16 13 12 11 -3 19 0 19 6 0 7 -4 10 -9 6 -6 -3 -8 8 -6
26 4 26 2 29 -10 19 -7 -6 -11 -18 -8 -26 3 -8 -4 -17 -20 -23 -32 -12 -41
-38 -22 -67 13 -21 13 -23 -5 -29 -10 -3 -28 0 -40 7 -18 11 -23 10 -36 -7
-13 -18 -13 -21 3 -32 18 -14 6 -18 -15 -5 -7 5 -10 15 -7 23 4 12 -2 15 -27
15 -22 -1 -33 4 -33 13 0 8 6 15 13 17 7 1 8 0 2 -3 -19 -9 -10 -20 15 -20 24
0 34 11 18 20 -5 2 -1 2 7 -1 19 -6 51 -5 58 2 3 3 -2 14 -12 25 -9 10 -16 24
-14 31 2 7 -2 14 -9 17 -16 6 -7 -48 10 -60 8 -6 5 -7 -6 -3 -10 3 -20 6 -23
6 -2 0 -1 8 2 18 5 16 5 16 -9 0 -15 -19 -32 -25 -22 -8 10 17 -5 11 -27 -10
-15 -14 -24 -16 -29 -9 -4 6 -13 16 -20 21 -11 7 -9 8 5 6 10 -2 21 2 23 8 2
6 -10 10 -29 10 -22 -1 -33 4 -33 13 0 8 6 15 13 17 7 1 8 0 2 -3 -19 -9 -10
-20 15 -20 24 0 34 11 18 20 -5 2 -1 2 7 0 41 -12 58 -5 58 22 0 19 -4 23 -13
15 -12 -10 -13 10 -4 49 5 18 -12 23 -33 10z m16 -14 c-7 -16 -24 -21 -24 -6
0 8 7 13 27 20 1 1 0 -6 -3 -14z m-60 -20 c-4 -8 -1 -15 5 -15 6 0 11 5 11 11
0 8 4 9 13 0 8 -6 17 -8 20 -4 4 3 7 2 7 -4 0 -11 -54 -12 -65 -1 -4 4 -4 11
0 17 9 16 15 13 9 -4z m-17 -24 c10 -15 9 -20 -1 -24 -7 -3 -19 -1 -27 4 -10
6 -19 2 -30 -13 -16 -20 -16 -23 4 -50 11 -15 18 -31 14 -35 -4 -3 -7 -1 -7 5
0 7 -4 12 -9 12 -5 0 -8 -11 -8 -25 0 -21 2 -23 13 -14 12 10 13 9 8 -5 -4 -9
-12 -15 -18 -13 -14 5 -17 48 -4 65 7 8 7 12 0 12 -6 0 -14 -4 -17 -10 -3 -5
-10 -10 -16 -10 -5 0 -9 5 -9 10 0 6 5 9 11 8 6 -2 14 3 16 10 3 8 -1 10 -11
6 -9 -3 -16 -1 -16 6 0 6 4 9 9 6 12 -8 32 18 28 35 -2 8 -2 10 1 6 2 -4 10
-3 18 4 11 9 18 9 29 -1 18 -15 20 1 3 18 -7 7 -8 12 -2 12 5 0 15 -9 21 -19z
m89 -28 c-2 -3 -13 0 -23 5 -10 5 -25 7 -33 5 -13 -4 -13 -3 -1 5 13 10 67 -5
57 -15z m-127 -20 c-12 -15 -12 -16 3 -10 12 4 15 2 11 -9 -3 -8 -2 -14 3 -13
22 4 35 -2 28 -12 -5 -8 -9 -8 -14 1 -4 6 -6 -18 -4 -54 2 -60 1 -63 -15 -48
-14 14 -15 21 -6 37 15 26 12 61 -7 83 -16 18 -14 42 4 42 6 0 4 -7 -3 -17z
m77 -109 c0 -27 -1 -43 -3 -36 -8 21 -20 13 -20 -13 0 -21 2 -23 13 -14 12 10
13 9 8 -5 -12 -32 -29 -9 -30 40 0 27 1 43 3 37 8 -22 21 -14 21 12 0 14 -4
25 -9 25 -5 0 -9 -5 -9 -12 0 -6 -3 -9 -6 -5 -9 9 6 29 19 24 7 -2 12 -25 13
-53z m-126 36 c0 -5 -4 -10 -10 -10 -5 0 -10 5 -10 10 0 6 5 10 10 10 6 0 10
-4 10 -10z m162 -68 c-18 -18 -19 -18 -19 18 0 36 1 36 19 18 17 -17 17 -19 0
-36z m-154 30 c18 -18 18 -19 -18 -19 -35 0 -36 1 -21 18 20 22 18 22 39 1z
m-218 -12 c0 -5 -4 -10 -10 -10 -5 0 -10 5 -10 10 0 6 5 10 10 10 6 0 10 -4
10 -10z m420 0 c0 -5 -4 -10 -10 -10 -5 0 -10 5 -10 10 0 6 5 10 10 10 6 0 10
-4 10 -10z m-269 -34 c-9 -11 -6 -13 14 -13 26 0 34 12 13 20 -7 2 9 3 36 3
49 -1 72 -18 40 -30 -14 -5 -15 -4 -5 8 9 11 7 14 -14 14 -26 0 -34 -13 -12
-21 6 -2 -9 -3 -35 -3 -51 1 -71 12 -48 26 21 13 24 12 11 -4z m-1 -48 c0 -5
-4 -8 -10 -8 -5 0 -10 5 -10 10 0 6 -5 10 -11 10 -5 0 -7 -4 -4 -10 3 -5 1
-10 -4 -10 -13 0 -13 3 -5 24 5 12 9 13 25 3 10 -6 19 -15 19 -19z m212 14
c-7 -2 -10 -8 -6 -13 3 -5 0 -9 -5 -9 -13 0 -13 3 -5 24 3 9 11 13 17 9 8 -5
7 -8 -1 -11z"/>
<path d="M5211 6210 c-15 -13 -31 -18 -47 -14 -36 9 -29 -3 16 -26 42 -21 50
-37 25 -46 -8 -4 -12 -11 -9 -16 4 -6 -3 -5 -15 2 -12 6 -27 9 -34 7 -15 -5
42 -33 67 -32 11 0 21 6 24 13 2 8 -3 10 -15 6 -11 -3 -14 -2 -7 3 24 19 23
42 -4 63 -15 12 -22 19 -16 16 7 -3 17 0 23 8 12 14 71 20 71 6 0 -5 -14 -7
-31 -5 -26 4 -29 2 -19 -11 8 -8 21 -12 31 -9 11 4 19 2 19 -5 0 -6 -4 -9 -9
-6 -5 3 -12 -1 -15 -10 -9 -24 -7 -28 7 -16 9 8 16 6 24 -7 9 -14 7 -20 -7
-29 -14 -9 -20 -6 -30 16 -7 15 -15 22 -17 15 -6 -16 15 -53 30 -53 7 0 21 7
32 16 16 12 18 18 7 34 -6 11 -12 23 -12 27 0 5 5 0 11 -9 5 -10 17 -15 27
-12 11 4 13 3 5 -3 -17 -12 -25 -65 -10 -60 7 2 12 12 12 23 0 10 6 18 13 17
16 -4 15 12 -3 30 -8 8 -11 17 -8 21 4 3 1 6 -4 6 -6 0 -13 -6 -16 -12 -3 -7
-4 -3 -4 8 1 30 22 20 46 -22 19 -32 16 -40 -11 -35 -10 1 -10 -16 0 -23 4 -2
16 2 26 10 19 13 19 14 0 50 -23 44 -53 59 -73 36 -12 -15 -12 -15 -7 5 7 21
3 24 -54 38 -8 2 -26 -5 -39 -15z"/>
<path d="M4790 6201 c0 -5 5 -13 11 -16 6 -4 8 -13 5 -20 -2 -7 2 -22 9 -32
13 -18 12 -21 -12 -32 -14 -6 -23 -15 -19 -18 9 -9 56 18 56 33 0 7 -4 16 -10
19 -5 3 -10 12 -10 18 0 7 5 4 11 -5 5 -10 17 -15 27 -12 10 4 13 3 6 -3 -19
-15 -24 -43 -9 -50 13 -5 13 -7 -2 -19 -15 -11 -16 -16 -5 -34 7 -12 10 -30 7
-40 -6 -18 -8 -19 -30 -4 -18 12 -28 13 -44 4 -24 -12 -26 -28 -7 -52 20 -27
31 -21 12 6 -15 23 -14 25 5 31 12 4 26 2 32 -4 17 -17 35 -13 47 10 9 16 8
26 -4 44 -13 20 -13 24 -1 29 8 3 12 0 9 -7 -2 -7 4 -13 16 -14 11 -1 21 5 21
13 1 8 2 20 3 27 1 6 9 11 18 9 10 -1 15 4 14 15 -1 13 5 17 22 16 12 -2 22 3
23 10 0 6 2 20 4 30 2 11 -1 16 -8 14 -7 -2 -11 -13 -9 -23 2 -11 -1 -15 -5
-9 -12 15 -54 37 -60 31 -10 -9 6 -36 19 -32 7 1 10 1 6 -1 -5 -3 -8 -11 -8
-18 0 -8 -9 -19 -20 -25 -12 -7 -17 -16 -13 -28 3 -9 -4 -5 -16 10 -21 26 -21
55 0 43 15 -10 10 12 -6 28 -13 13 -13 16 0 27 8 7 15 16 15 21 0 11 -53 0
-63 -14 -5 -8 -7 -5 -5 8 2 12 -4 21 -14 23 -10 2 -18 -1 -18 -7z m68 -35 c-7
-8 -15 -12 -17 -11 -5 6 10 25 20 25 5 0 4 -6 -3 -14z"/>
<path d="M5009 6198 c0 -7 -2 -21 -4 -31 -2 -11 1 -16 8 -14 7 2 11 13 10 23
-1 10 0 13 3 6 3 -6 10 -10 15 -6 5 3 9 0 9 -5 0 -6 4 -11 8 -11 14 0 7 43 -8
48 -8 3 -10 0 -5 -9 6 -11 5 -12 -6 -1 -7 6 -17 12 -21 12 -4 0 -8 -6 -9 -12z"/>
<path d="M5087 6192 c-10 -2 -16 -11 -15 -20 2 -11 -4 -17 -17 -18 -31 -1 -53
-14 -58 -36 -4 -15 -11 -18 -26 -13 -12 4 -21 2 -21 -4 0 -6 6 -11 13 -12 6 0
20 -2 30 -4 14 -3 17 1 13 13 -5 15 -4 15 8 0 20 -27 31 -21 12 6 -15 23 -14
25 4 31 10 3 28 0 39 -7 18 -11 23 -10 35 7 13 18 13 21 -1 32 -13 10 -13 12
5 10 11 0 20 -5 19 -10 -1 -5 4 -12 12 -15 9 -3 11 0 6 8 -5 9 -4 11 4 6 15
-10 4 -27 -16 -24 -9 2 -18 -2 -20 -7 -2 -6 14 -10 39 -9 57 2 58 2 58 15 0 5
-4 7 -10 4 -5 -3 -10 -2 -10 3 0 5 -13 15 -30 22 -16 7 -30 16 -30 20 0 7 -15
8 -43 2z m7 -47 c-4 -8 -11 -12 -16 -9 -6 4 -5 10 3 15 19 12 19 11 13 -6z"/>
<path d="M4626 6171 c-7 -9 -11 -22 -9 -29 5 -13 -36 -33 -51 -24 -5 3 -6 0
-2 -7 4 -6 2 -18 -4 -26 -9 -11 -9 -15 -1 -15 6 0 16 9 23 19 7 12 16 17 23
11 6 -4 15 -2 23 6 7 8 10 14 6 14 -4 0 1 9 11 20 10 11 13 20 7 20 -6 0 -13
-5 -15 -10 -3 -6 -4 -5 -3 2 1 7 12 14 24 14 12 1 19 -3 16 -7 -3 -5 0 -9 6
-9 6 0 10 8 8 17 -4 21 -44 24 -62 4z"/>
<path d="M5220 6183 c0 -13 29 -38 35 -31 3 3 -4 13 -15 23 -11 10 -20 13 -20
8z"/>
<path d="M5390 6150 c6 -12 17 -17 28 -14 11 4 13 3 5 -3 -17 -12 -26 -66 -10
-60 7 2 11 11 9 19 -4 26 20 38 48 23 25 -14 25 -14 -8 -10 -26 3 -32 0 -28
-10 3 -8 1 -17 -4 -20 -6 -4 -10 -12 -10 -18 1 -7 9 -2 19 11 11 12 22 22 26
22 4 0 1 -8 -6 -17 -12 -15 -12 -16 4 -10 10 4 21 7 23 7 3 0 2 5 -1 10 -3 6
-2 10 3 10 6 0 9 -11 8 -24 -1 -17 -4 -21 -12 -15 -8 7 -11 2 -11 -16 0 -19 3
-23 12 -15 14 12 28 -11 19 -33 -3 -8 4 -13 20 -12 26 0 41 10 41 28 0 7 9 11
18 10 12 -1 17 4 13 14 -3 8 -6 17 -6 19 0 3 -10 -4 -22 -16 -12 -11 -24 -18
-27 -15 -2 3 4 11 14 19 17 12 17 16 6 30 -13 15 -15 15 -32 0 -11 -10 -19
-12 -19 -6 0 7 5 12 10 12 22 0 8 17 -39 48 -28 17 -57 32 -65 32 -9 0 -16 5
-16 10 0 6 -5 10 -10 10 -7 0 -7 -6 0 -20z m149 -109 c-20 -16 -20 -18 -4 -34
9 -9 12 -17 6 -17 -6 0 -15 9 -21 20 -8 15 -7 24 7 38 10 10 21 17 26 15 4 -3
-2 -12 -14 -22z"/>
<path d="M4695 6116 c-11 -6 -22 -12 -24 -13 -2 -2 4 -12 13 -22 10 -11 15
-25 11 -30 -3 -6 1 -14 10 -17 22 -9 30 3 15 21 -10 12 -10 21 -2 40 13 29 5
37 -23 21z"/>
<path d="M5030 6123 c0 -5 5 -14 11 -20 17 -17 1 -34 -27 -29 -17 3 -24 1 -21
-7 2 -6 17 -12 33 -12 16 -1 37 -5 47 -9 13 -6 22 -3 32 10 12 17 12 21 -2 31
-13 10 -13 12 5 10 11 0 20 -5 19 -10 -1 -5 4 -12 12 -15 9 -3 11 0 6 8 -5 9
-4 11 4 6 15 -10 4 -27 -16 -24 -9 2 -18 -2 -20 -9 -5 -15 33 -9 53 8 8 6 14
7 14 2 0 -6 -10 -14 -22 -20 -22 -10 -22 -10 10 -27 32 -17 52 -15 52 5 0 6
-4 7 -10 4 -5 -3 -17 -2 -26 3 -15 8 -15 10 0 15 22 9 10 33 -25 47 -16 7 -29
16 -29 20 0 5 -8 7 -17 5 -10 -2 -23 -4 -30 -4 -6 -1 -11 -10 -10 -21 1 -12 7
-18 14 -16 7 3 10 -1 7 -9 -5 -11 -10 -12 -24 -2 -11 6 -16 14 -12 17 14 10 7
45 -11 48 -9 2 -17 0 -17 -5z"/>
<path d="M5270 6120 c0 -5 5 -10 10 -10 6 0 10 5 10 10 0 6 -4 10 -10 10 -5 0
-10 -4 -10 -10z"/>
<path d="M4752 6073 c2 -10 10 -17 17 -15 8 2 22 -5 32 -14 11 -10 20 -15 22
-13 22 37 25 49 17 54 -16 10 -30 -4 -24 -23 4 -10 2 -13 -3 -7 -9 11 -49 35
-59 35 -3 0 -4 -8 -2 -17z"/>
<path d="M5237 6083 c-11 -11 5 -32 21 -26 11 3 13 2 5 -4 -17 -12 -26 -66
-10 -60 7 3 11 10 9 17 -2 7 5 21 14 31 10 11 15 20 13 22 -32 18 -48 25 -52
20z"/>
<path d="M5297 6084 c-3 -3 -3 -12 -1 -18 3 -7 -2 -19 -11 -26 -20 -17 -19
-27 5 -33 12 -3 23 1 29 10 7 13 9 13 15 -2 3 -9 3 -21 0 -27 -4 -6 -1 -9 6
-6 23 7 22 23 -4 60 -13 20 -22 39 -18 42 3 3 1 6 -5 6 -5 0 -12 -3 -16 -6z
m17 -48 c-3 -9 -10 -16 -15 -16 -5 0 -4 9 3 20 14 22 21 20 12 -4z"/>
<path d="M5377 6084 c-3 -3 -3 -12 -1 -19 7 -17 -12 -29 -22 -14 -4 8 -3 9 4
5 7 -4 12 -3 12 3 0 14 -18 23 -24 12 -8 -12 14 -61 27 -61 6 0 3 -8 -6 -18
-10 -10 -17 -21 -17 -25 0 -9 40 1 56 14 8 6 14 7 14 2 0 -6 -10 -15 -22 -20
l-23 -11 28 -12 c32 -16 33 -21 8 -37 -16 -10 -20 -9 -25 3 -3 9 -3 20 0 26 4
6 1 9 -6 6 -20 -6 -21 -20 -5 -42 10 -13 19 -16 32 -10 10 4 31 8 48 9 22 0
31 6 33 20 3 17 1 17 -7 5 -6 -8 -11 -10 -11 -5 0 6 7 20 15 32 9 12 11 24 6
27 -5 4 -12 -3 -16 -14 -3 -11 -11 -20 -16 -20 -5 0 -3 11 6 24 14 21 14 25
-6 47 -21 24 -21 19 -2 -28 3 -7 -2 -16 -11 -19 -9 -3 -13 -10 -10 -15 3 -5
-3 -6 -12 -2 -16 6 -15 8 4 16 12 6 22 14 22 19 0 5 -5 6 -12 2 -7 -5 -9 -2
-5 9 3 9 -4 31 -18 51 -13 19 -21 37 -17 40 3 3 1 6 -5 6 -5 0 -12 -3 -16 -6z
m17 -48 c-3 -9 -10 -16 -15 -16 -5 0 -4 9 3 20 14 22 21 20 12 -4z m20 -22 c3
-8 2 -13 -3 -10 -5 3 -11 -1 -15 -9 -3 -8 -10 -15 -16 -15 -6 0 -4 7 4 16 9 8
16 20 16 25 0 14 7 11 14 -7z m46 -94 c0 -5 -4 -10 -10 -10 -5 0 -10 5 -10 10
0 6 5 10 10 10 6 0 10 -4 10 -10z"/>
<path d="M4925 6070 c1 -3 -1 -16 -6 -29 -6 -15 -14 -21 -24 -17 -8 3 -15 1
-15 -4 0 -6 5 -10 11 -10 6 0 1 -13 -11 -30 -12 -16 -28 -30 -35 -30 -8 0 -13
-9 -12 -20 1 -12 7 -18 14 -16 7 3 10 -1 6 -9 -4 -13 -8 -13 -25 -1 -11 8 -26
12 -33 9 -8 -2 -18 4 -24 15 -7 14 -19 19 -40 16 -17 -2 -33 1 -36 6 -4 6 1 7
11 3 13 -5 15 -3 9 8 -6 11 -5 12 6 2 17 -17 29 -16 29 2 0 8 12 22 26 32 21
14 29 14 46 4 23 -14 33 -9 25 13 -4 9 -12 13 -20 10 -8 -3 -20 2 -27 11 -16
19 -30 19 -30 1 0 -8 -13 -24 -30 -36 -16 -12 -30 -17 -30 -11 0 6 -4 11 -10
11 -5 0 -7 -7 -4 -15 6 -14 -32 -38 -47 -29 -3 2 -5 -7 -4 -18 1 -12 7 -24 14
-26 6 -2 11 0 10 5 -5 27 1 35 16 23 9 -7 30 -14 48 -14 24 -2 31 -6 29 -19
-2 -12 2 -15 15 -11 12 4 14 3 6 -3 -17 -12 -26 -66 -10 -60 7 2 11 12 9 21
-2 9 4 19 12 22 9 3 13 10 10 15 -3 5 6 4 21 -3 22 -10 27 -9 40 8 12 17 12
21 -3 33 -16 13 -16 13 1 8 13 -5 17 -2 15 9 -2 11 6 18 21 21 33 5 36 10 20
30 -12 14 -12 16 0 8 11 -6 13 -4 7 11 -4 10 -3 15 1 10 4 -4 8 -22 8 -39 0
-17 7 -33 14 -35 10 -3 11 0 5 9 -6 12 -5 12 9 0 21 -17 24 -14 31 22 3 19 1
27 -7 24 -7 -2 -11 -13 -10 -23 1 -10 0 -13 -3 -6 -3 6 -10 10 -15 6 -5 -3 -9
-1 -9 4 0 5 11 15 25 22 28 15 31 27 12 52 -11 14 -70 22 -62 8z m47 -46 c-13
-9 -19 -9 -28 4 -9 13 -9 19 4 28 13 9 19 9 28 -4 9 -13 9 -19 -4 -28z"/>
<path d="M4950 6040 c0 -5 5 -10 10 -10 6 0 10 5 10 10 0 6 -4 10 -10 10 -5 0
-10 -4 -10 -10z"/>
<path d="M5216 6048 c10 -18 19 -28 21 -21 5 15 -15 53 -28 53 -5 0 -2 -15 7
-32z"/>
<path d="M4220 6049 c0 -5 5 -7 10 -4 6 3 10 8 10 11 0 2 -4 4 -10 4 -5 0 -10
-5 -10 -11z"/>
<path d="M5437 6053 c-12 -12 -7 -19 14 -20 17 -2 18 1 9 13 -14 16 -14 16
-23 7z"/>
<path d="M5009 6038 c0 -7 -2 -21 -4 -31 -2 -11 1 -16 8 -14 7 2 11 13 10 23
-1 10 0 13 3 6 3 -6 10 -10 15 -6 5 3 9 0 9 -5 0 -6 4 -11 8 -11 14 0 7 43 -8
48 -8 3 -10 0 -5 -9 6 -11 5 -12 -6 -1 -7 6 -17 12 -21 12 -4 0 -8 -6 -9 -12z"/>
<path d="M5195 6040 c-3 -5 -1 -10 4 -10 6 0 11 5 11 10 0 6 -2 10 -4 10 -3 0
-8 -4 -11 -10z"/>
<path d="M5087 6032 c-10 -2 -16 -11 -15 -20 2 -11 -4 -17 -17 -18 -31 -1 -53
-14 -58 -34 -5 -19 -41 -24 -62 -9 -21 15 -51 6 -50 -15 1 -11 7 -22 14 -24 6
-2 11 0 10 5 -5 26 1 35 16 23 8 -7 31 -13 50 -15 29 -2 35 1 30 14 -4 13 -2
13 9 -1 20 -27 31 -21 12 6 -15 23 -14 25 4 31 10 3 28 0 39 -7 18 -11 23 -10
35 7 13 18 13 21 -1 32 -13 10 -13 12 5 10 11 0 20 -5 19 -10 -1 -5 4 -12 12
-15 9 -3 11 0 6 8 -5 9 -4 11 4 6 15 -10 4 -27 -16 -24 -9 2 -18 -2 -20 -9 -5
-15 33 -9 53 8 8 6 14 7 14 2 0 -6 -10 -15 -22 -20 l-23 -11 28 -12 c32 -16
33 -21 8 -37 -16 -10 -20 -9 -25 3 -3 9 -4 20 0 25 7 12 -9 12 -22 -1 -6 -6
-15 -6 -24 1 -12 8 -12 9 4 7 10 -2 21 2 23 9 2 7 -3 10 -14 8 -10 -2 -23 -4
-30 -4 -6 -1 -11 -10 -10 -21 1 -12 7 -18 14 -16 7 3 10 -1 7 -9 -5 -12 -10
-12 -27 -2 -28 16 -59 16 -65 -1 -2 -8 3 -10 15 -6 11 4 14 3 6 -3 -17 -12
-26 -66 -10 -60 7 2 11 12 9 21 -2 9 4 19 12 22 9 3 13 10 10 15 -3 5 6 4 21
-3 22 -10 27 -9 40 8 14 19 14 19 28 0 10 -14 19 -17 33 -11 10 5 32 9 49 10
22 0 31 6 33 20 3 17 1 17 -7 5 -13 -18 -14 -1 -2 19 7 11 10 9 16 -9 4 -12 2
-27 -4 -33 -17 -17 -13 -35 10 -47 16 -9 26 -8 44 4 22 15 24 14 30 -4 3 -10
0 -28 -7 -40 -11 -18 -10 -23 7 -36 18 -13 21 -13 34 3 13 17 13 17 7 0 -3
-11 -2 -17 5 -15 6 2 10 7 10 11 -1 4 -1 13 -1 21 0 9 -9 14 -20 13 -12 -1
-18 -7 -16 -14 3 -7 -1 -10 -9 -7 -12 5 -12 9 1 29 26 39 -11 86 -43 54 -6 -6
-20 -8 -32 -4 -19 6 -20 8 -5 30 14 21 14 26 0 54 -9 16 -20 33 -26 36 -6 4
-8 11 -5 16 10 15 -7 10 -27 -8 -10 -9 -18 -11 -18 -6 0 6 -13 16 -30 23 -16
7 -30 16 -30 20 0 7 -15 8 -43 2z m7 -47 c-4 -8 -11 -12 -16 -9 -6 4 -5 10 3
15 19 12 19 11 13 -6z m114 -19 c-10 -7 -15 -16 -11 -20 4 -4 -1 -4 -12 0 -18
7 -18 8 3 17 12 6 22 15 22 20 0 6 3 7 7 3 5 -4 0 -13 -9 -20z m26 -10 c-3 -9
-10 -16 -15 -16 -5 0 -4 9 3 20 14 22 21 20 12 -4z m-14 -36 c0 -5 -4 -10 -10
-10 -5 0 -10 5 -10 10 0 6 5 10 10 10 6 0 10 -4 10 -10z"/>
<path d="M4240 6015 c-7 -9 -11 -18 -8 -20 3 -3 11 1 18 10 7 9 11 18 8 20 -3
3 -11 -1 -18 -10z"/>
<path d="M4310 6025 c0 -5 5 -17 10 -25 5 -8 10 -10 10 -5 0 6 -5 17 -10 25
-5 8 -10 11 -10 5z"/>
<path d="M5606 6012 c-4 -6 -14 -8 -23 -5 -10 4 -14 2 -10 -4 9 -14 -29 -47
-43 -38 -18 11 -40 -15 -34 -40 3 -13 1 -26 -5 -29 -17 -11 -13 -30 10 -44 17
-11 24 -11 44 2 20 13 24 13 29 1 3 -8 0 -12 -7 -9 -7 2 -13 -4 -14 -16 -1
-11 4 -20 10 -21 7 0 20 -2 30 -4 11 -2 16 1 14 8 -2 7 -13 11 -23 9 -18 -3
-18 -3 -2 10 15 12 15 15 2 33 -12 17 -17 18 -35 7 -11 -7 -29 -10 -39 -7 -18
6 -18 8 -5 29 9 13 13 30 10 39 -4 8 -2 18 3 21 5 3 9 -12 9 -34 0 -22 -4 -37
-9 -34 -4 3 -8 0 -8 -6 0 -6 8 -10 18 -8 9 2 16 10 14 17 -4 19 29 53 45 47 7
-3 13 -2 13 3 0 18 -15 20 -37 6 -13 -9 -23 -11 -23 -6 0 5 9 13 20 16 11 4
18 11 15 16 -6 8 2 11 21 8 4 0 11 5 16 13 8 10 9 10 5 -2 -2 -8 -10 -14 -16
-12 -16 3 -14 -6 10 -39 25 -35 46 -39 23 -5 -12 19 -13 29 -5 43 11 18 12 17
16 -27 1 -13 8 -26 14 -28 8 -3 6 -8 -5 -17 -15 -11 -21 -9 -36 9 -21 25 -24
9 -2 -19 12 -16 18 -18 34 -7 11 6 23 12 27 12 5 0 0 -5 -9 -11 -10 -5 -15
-17 -12 -27 4 -11 3 -13 -3 -5 -12 17 -65 25 -60 10 2 -7 12 -12 23 -12 10 0
18 -6 17 -12 -4 -17 12 -16 30 2 8 8 17 11 21 8 3 -4 6 -1 6 5 0 5 -5 13 -10
15 -6 3 -5 4 2 3 7 -2 13 -11 13 -21 0 -10 5 -20 12 -22 16 -6 6 49 -10 59 -9
6 -8 8 1 8 8 0 16 -8 19 -17 2 -10 15 -26 28 -35 19 -14 24 -15 28 -4 3 8 -4
22 -15 33 -12 10 -18 12 -14 6 4 -7 2 -13 -3 -13 -6 0 -11 9 -11 20 0 11 -4
20 -10 20 -5 0 -10 7 -10 16 0 8 -5 12 -10 9 -6 -4 -8 -11 -5 -16 4 -5 1 -9
-5 -9 -7 0 -9 8 -5 20 4 11 2 20 -4 20 -6 0 -11 -5 -11 -12 0 -6 -3 -8 -6 -5
-4 4 -1 15 7 24 7 10 10 15 5 11 -4 -3 -20 7 -35 24 -18 20 -30 27 -35 20z"/>
<path d="M5315 6000 c-3 -5 -1 -10 4 -10 6 0 11 5 11 10 0 6 -2 10 -4 10 -3 0
-8 -4 -11 -10z"/>
<path d="M5480 6000 c0 -5 5 -10 10 -10 6 0 10 5 10 10 0 6 -4 10 -10 10 -5 0
-10 -4 -10 -10z"/>
<path d="M5265 5990 c-3 -5 2 -24 12 -40 15 -26 16 -34 5 -51 -15 -24 -10 -34
12 -26 9 4 13 12 10 20 -6 16 28 49 46 45 7 -2 15 4 18 12 2 8 2 12 -2 8 -4
-3 -24 5 -43 18 -39 27 -49 29 -58 14z m33 -19 c11 -7 10 -9 -3 -14 -9 -4 -14
-3 -10 2 3 5 -1 12 -7 14 -7 3 -8 6 -3 6 6 0 16 -3 23 -8z m26 -25 c-10 -8
-21 -12 -24 -10 -5 6 21 24 34 24 6 0 1 -6 -10 -14z"/>
<path d="M4790 5963 c1 -10 25 -43 32 -43 3 0 4 10 3 23 -1 20 -35 40 -35 20z"/>
<path d="M5030 5963 c1 -10 25 -43 32 -43 3 0 4 10 3 23 -1 20 -35 40 -35 20z"/>
<path d="M4080 5926 c0 -10 -4 -14 -10 -11 -6 3 -7 -1 -4 -9 7 -18 20 -21 27
-6 3 6 4 5 3 -2 -2 -7 -13 -12 -25 -11 -13 2 -21 -3 -21 -12 0 -8 -6 -15 -14
-15 -8 0 -18 -5 -22 -12 -4 -7 -3 -8 4 -4 7 4 12 3 12 -2 0 -5 -10 -12 -22
-15 -18 -5 -19 -8 -8 -21 7 -9 17 -16 22 -16 6 0 6 6 -1 14 -10 12 -8 14 13
12 29 -4 32 3 14 24 -11 12 -10 12 4 1 9 -7 22 -10 27 -7 15 10 24 -13 11 -29
-9 -11 -9 -15 -1 -15 6 0 11 -5 11 -11 0 -6 -9 -4 -22 5 -15 11 -26 12 -40 5
-14 -7 -23 -7 -34 2 -11 9 -17 9 -29 -1 -8 -7 -12 -16 -9 -21 3 -5 -1 -12 -10
-15 -8 -3 -25 -30 -37 -60 -13 -30 -27 -54 -31 -54 -5 0 -6 -4 -3 -10 3 -5 -1
-20 -10 -33 -8 -13 -12 -27 -8 -30 3 -4 1 -7 -5 -7 -7 0 -12 -8 -12 -19 0 -10
-7 -34 -15 -53 -12 -31 -12 -38 2 -57 9 -14 21 -20 30 -16 13 4 13 3 4 -9 -9
-11 -7 -13 14 -13 19 0 23 3 15 12 -8 9 -6 14 6 19 10 4 14 12 10 22 -4 9 -1
23 5 30 7 8 7 14 1 14 -17 0 -33 -27 -26 -44 3 -9 1 -16 -6 -16 -6 0 -9 4 -6
9 3 5 -1 12 -10 15 -24 9 -28 7 -14 -9 15 -18 5 -20 -14 -3 -10 10 -9 16 8 31
16 14 17 17 4 13 -12 -3 -15 -1 -11 10 4 11 9 12 19 4 7 -7 10 -19 7 -28 -6
-15 -5 -15 10 -3 16 12 16 16 2 31 -8 9 -12 20 -8 23 3 4 1 7 -5 7 -7 0 -12 5
-12 11 0 8 5 8 15 -1 8 -7 12 -16 9 -21 -3 -5 -1 -9 5 -9 17 0 21 17 6 30 -7
6 -11 19 -8 27 5 12 3 14 -7 8 -8 -5 -11 -4 -6 3 4 6 13 9 22 5 12 -4 12 -8 2
-21 -11 -13 -10 -15 4 -9 13 4 15 2 11 -10 -4 -9 -2 -14 3 -11 5 3 15 0 22 -8
11 -12 9 -13 -9 -11 -12 1 -23 -3 -26 -8 -4 -12 41 -14 53 -2 4 4 9 17 11 29
3 16 1 18 -10 9 -11 -8 -16 -5 -25 14 -9 19 -8 23 2 19 7 -3 19 3 27 12 11 13
11 18 2 21 -7 3 -13 9 -13 15 0 6 6 6 15 -2 11 -9 15 -9 15 -1 0 17 -29 26
-42 13 -8 -8 -8 -15 2 -27 8 -10 9 -15 1 -15 -6 0 -11 5 -11 10 0 6 -5 10 -11
10 -5 0 -7 -4 -4 -10 3 -5 2 -10 -3 -10 -6 0 -9 11 -8 24 1 16 5 22 16 18 13
-5 13 -3 0 14 -8 11 -8 14 -1 8 13 -12 51 -8 51 5 0 4 -6 13 -12 20 -11 11
-10 12 1 6 9 -5 12 -3 9 6 -3 8 -14 13 -24 12 -10 -1 -13 0 -6 3 6 3 12 11 12
19 0 22 28 39 44 26 9 -8 16 -8 20 -2 4 5 -3 12 -14 16 -11 3 -20 11 -20 16 0
6 10 3 22 -5 15 -11 26 -12 40 -5 19 10 38 5 38 -12 0 -5 -5 -9 -11 -9 -5 0
-7 5 -4 10 3 6 1 10 -4 10 -6 0 -11 -5 -11 -11 0 -5 -5 -7 -11 -3 -7 4 -10 1
-7 -6 7 -22 48 -19 66 5 13 16 17 39 16 95 -1 40 2 67 6 60 5 -8 10 -9 14 -2
7 12 -12 28 -21 18 -3 -3 -12 -1 -20 5 -10 9 -13 8 -13 -5z m20 -64 c0 -4 -9
-8 -20 -9 -11 -1 -20 2 -20 5 0 4 9 8 20 9 11 1 20 -2 20 -5z m-156 -187 c3
-8 1 -15 -3 -15 -5 0 -11 7 -15 15 -3 8 -1 15 3 15 5 0 11 -7 15 -15z"/>
<path d="M4240 5915 c10 -11 10 -18 1 -29 -7 -8 -8 -16 -4 -18 4 -3 2 -3 -6
-1 -16 4 -43 -16 -36 -27 9 -14 -16 -23 -28 -11 -9 9 -8 11 6 5 23 -9 19 12
-9 44 -31 35 -42 21 -40 -47 2 -50 -1 -64 -20 -84 -13 -14 -22 -27 -21 -29 1
-2 -2 0 -7 4 -16 13 -23 9 -29 -12 -6 -24 36 -56 50 -37 5 7 8 21 8 33 -2 15
4 20 19 20 14 -1 21 5 22 19 2 40 4 46 14 40 19 -11 10 14 -9 27 -17 12 -17
17 -6 37 8 15 15 20 19 12 4 -6 2 -11 -3 -11 -15 0 -14 -25 2 -38 10 -9 19 -7
35 4 12 8 22 11 22 5 0 -5 -9 -13 -20 -16 -11 -4 -18 -10 -15 -15 6 -10 65 20
65 33 0 5 -3 6 -7 4 -5 -3 -13 1 -20 8 -9 10 -7 13 11 11 25 -1 33 -34 10 -43
-7 -3 -11 -9 -8 -14 3 -5 -1 -6 -9 -3 -16 6 -30 -10 -34 -40 -3 -16 -1 -17 12
-6 9 7 15 8 15 2 0 -18 -24 -20 -42 -4 -23 20 -23 0 0 -21 16 -14 19 -14 41 2
21 16 22 19 6 34 -15 16 -14 17 14 13 23 -2 34 2 46 20 8 13 11 25 6 29 -5 3
-12 -4 -16 -15 -3 -11 -11 -20 -16 -20 -5 0 -1 12 8 27 10 15 17 29 16 30 -1
2 -9 11 -18 19 -12 13 -13 19 -4 30 9 11 8 18 -1 29 -7 8 -17 15 -22 15 -6 0
-5 -7 2 -15z m-110 -175 c0 -5 -2 -10 -4 -10 -3 0 -8 5 -11 10 -3 6 -1 10 4
10 6 0 11 -4 11 -10z m-40 -51 c0 -4 -7 -6 -15 -3 -8 4 -15 10 -15 15 0 4 7 6
15 3 8 -4 15 -10 15 -15z"/>
<path d="M4673 5918 c1 -7 -7 -13 -17 -13 -11 0 -21 -7 -24 -15 -3 -8 -2 -12
2 -8 4 3 24 -5 44 -18 37 -26 53 -27 60 -4 3 7 0 10 -6 6 -5 -3 -25 1 -43 9
-19 8 -26 14 -17 15 9 0 18 3 21 8 2 4 2 1 1 -5 -4 -15 12 -17 21 -4 6 10 -21
41 -36 41 -5 0 -8 -6 -6 -12z"/>
<path d="M4913 5918 c1 -7 -7 -13 -17 -13 -11 0 -21 -5 -23 -12 -5 -15 48 -7
60 10 6 8 7 6 3 -5 -3 -10 -1 -18 4 -18 17 0 20 19 4 34 -19 19 -35 21 -31 4z"/>
<path d="M5150 5920 c0 -5 5 -10 10 -10 6 0 10 5 10 10 0 6 -4 10 -10 10 -5 0
-10 -4 -10 -10z"/>
<path d="M5322 5918 c-16 -16 -15 -28 2 -28 8 0 24 -13 36 -30 12 -16 17 -30
11 -30 -6 0 -11 -4 -11 -10 0 -5 7 -7 15 -4 10 4 18 -3 24 -19 6 -14 19 -28
30 -32 12 -3 21 -11 21 -16 0 -6 -4 -8 -9 -5 -5 4 -11 3 -14 -1 -2 -5 -2 -2 0
5 1 8 -3 12 -9 9 -7 -2 -11 -13 -10 -23 5 -27 9 -29 29 -13 14 12 15 12 9 0
-6 -9 -5 -12 5 -9 7 2 14 18 14 35 0 17 3 35 8 39 14 14 7 31 -18 44 -14 7
-25 17 -25 22 0 5 4 7 9 4 5 -4 12 0 15 6 3 7 4 4 3 -6 -1 -10 3 -21 10 -23 8
-3 10 5 7 24 -7 36 -10 39 -31 22 -14 -12 -15 -12 -9 0 6 9 5 12 -5 9 -7 -2
-14 -18 -14 -35 0 -17 -4 -35 -8 -39 -4 -5 -5 0 -1 10 6 15 4 17 -7 11 -11 -6
-12 -5 -1 6 16 17 15 29 -3 29 -8 0 -19 9 -25 20 -6 10 -16 18 -23 16 -6 -1
-9 -1 -4 1 9 6 9 23 -1 23 -4 0 -13 -5 -20 -12z m135 -129 c-8 -13 -14 -15
-28 -6 -13 8 -15 14 -6 28 8 13 14 15 28 6 13 -8 15 -14 6 -28z"/>
<path d="M5430 5800 c0 -5 5 -10 10 -10 6 0 10 5 10 10 0 6 -4 10 -10 10 -5 0
-10 -4 -10 -10z"/>
<path d="M5390 5920 c0 -5 5 -10 10 -10 6 0 10 5 10 10 0 6 -4 10 -10 10 -5 0
-10 -4 -10 -10z"/>
<path d="M5560 5915 c-16 -19 -13 -22 23 -29 19 -3 27 -1 24 7 -2 7 -13 11
-23 10 -10 -1 -13 0 -6 3 14 6 16 24 3 24 -5 0 -14 -7 -21 -15z"/>
<path d="M4735 5889 c19 -36 25 -37 22 -1 -1 19 -8 29 -19 29 -17 2 -17 -1 -3
-28z"/>
<path d="M4966 5909 c3 -5 0 -16 -6 -24 -9 -11 -9 -15 -1 -15 6 0 11 5 11 11
0 5 5 7 11 3 20 -12 -18 -26 -40 -14 -28 14 -34 13 -49 -11 -11 -17 -11 -25 3
-45 15 -23 10 -30 -17 -25 -10 1 -10 -16 0 -23 4 -2 16 2 26 10 16 12 18 18 8
39 -6 13 -9 31 -6 40 5 12 9 12 29 -1 19 -13 27 -13 44 -3 25 16 24 64 -2 66
-9 1 -15 -3 -11 -8z"/>
<path d="M4338 5881 c-16 -9 -28 -20 -28 -24 0 -5 5 -5 10 -2 6 3 10 2 10 -3
0 -6 -7 -13 -16 -16 -9 -3 -14 -12 -11 -19 2 -6 -5 -25 -16 -41 -13 -18 -15
-26 -6 -21 7 5 23 9 33 10 11 0 21 7 24 15 5 13 3 13 -11 1 -10 -7 -17 -9 -17
-5 0 5 9 15 21 22 12 8 18 19 15 28 -3 8 -2 13 3 10 5 -3 11 1 14 8 9 23 42
15 43 -10 2 -18 -1 -20 -11 -11 -7 7 -11 15 -8 20 2 4 1 7 -4 7 -13 0 -43 -59
-33 -65 5 -3 11 4 15 15 3 11 11 20 17 20 7 0 6 -5 -1 -14 -17 -20 -23 -58 -8
-53 7 2 12 12 12 23 0 10 5 19 12 19 28 0 40 51 16 74 -7 6 -13 9 -13 5 0 -4
-8 0 -17 8 -16 13 -21 13 -45 -1z m26 -15 c-10 -8 -21 -12 -24 -10 -5 6 21 24
34 24 6 0 1 -6 -10 -14z m-34 -46 c0 -5 -5 -10 -11 -10 -5 0 -7 5 -4 10 3 6 8
10 11 10 2 0 4 -4 4 -10z"/>
<path d="M5106 5884 c-4 -11 -13 -14 -27 -11 -25 7 -49 -1 -49 -16 0 -6 3 -8
6 -4 4 3 13 0 21 -8 17 -18 34 -19 31 -3 -2 7 11 12 31 14 22 1 29 -1 20 -7
-8 -5 -22 -6 -32 -3 -10 3 -17 2 -16 -3 5 -28 -2 -33 -26 -17 -20 13 -28 14
-40 4 -16 -13 -39 -4 -29 12 4 6 1 8 -7 6 -8 -3 -13 -11 -11 -18 2 -7 -5 -21
-14 -31 -19 -21 -18 -26 10 -31 10 -1 21 3 23 10 3 6 -1 10 -9 9 -7 -2 -10 -2
-5 0 4 3 7 12 7 21 1 10 7 2 15 -15 8 -18 19 -33 26 -33 7 0 6 8 -4 24 -14 21
-14 25 -2 30 9 3 27 0 40 -6 21 -10 28 -8 40 8 14 19 14 19 29 -1 13 -17 18
-18 36 -7 12 7 30 10 40 7 18 -6 19 -8 4 -31 -19 -27 -8 -33 12 -6 19 24 17
40 -7 52 -16 9 -26 8 -44 -4 -20 -13 -24 -13 -29 -1 -3 8 0 12 7 9 7 -2 13 4
14 16 1 11 -3 20 -9 20 -6 0 -19 7 -28 15 -16 14 -18 14 -24 -1z"/>
<path d="M4476 5882 c-3 -6 0 -13 6 -16 7 -3 4 -4 -8 -1 -24 6 -50 -18 -39
-35 8 -13 -24 -52 -36 -44 -5 3 -9 1 -9 -5 0 -18 20 -23 26 -7 3 9 10 14 14
11 5 -3 11 4 15 15 3 11 11 20 17 20 7 0 6 -5 -1 -14 -17 -20 -23 -58 -8 -53
7 3 11 10 9 17 -2 7 5 21 14 31 19 22 16 29 -14 32 -27 2 -17 12 12 12 26 1
32 -27 10 -46 -19 -16 -18 -26 7 -32 13 -3 22 0 26 10 5 13 7 13 15 -1 5 -9 6
-21 2 -27 -4 -7 -1 -10 6 -7 23 7 22 23 -4 61 -14 20 -22 37 -18 37 4 0 2 4
-4 8 -6 4 -15 15 -21 26 -6 11 -13 14 -17 8z m38 -86 c-3 -9 -10 -16 -15 -16
-5 0 -4 9 3 20 14 22 21 20 12 -4z"/>
<path d="M4715 5880 c-3 -5 -1 -10 4 -10 6 0 11 5 11 10 0 6 -2 10 -4 10 -3 0
-8 -4 -11 -10z"/>
<path d="M5179 5888 c-5 -17 -4 -48 3 -48 4 0 8 5 8 11 0 6 14 1 30 -11 17
-12 30 -28 30 -36 0 -18 14 -18 30 1 7 9 19 14 27 11 8 -3 16 1 20 10 8 22 -2
27 -25 13 -17 -10 -25 -10 -46 4 -14 10 -26 24 -26 32 0 18 -12 19 -29 3 -11
-10 -13 -10 -7 0 4 6 2 12 -3 12 -6 0 -11 -1 -12 -2z"/>
<path d="M4802 5872 c-7 -2 -12 -8 -12 -13 0 -6 5 -7 10 -4 6 3 10 2 10 -3 0
-6 -7 -12 -15 -16 -8 -3 -15 -11 -15 -18 0 -9 3 -9 12 0 9 9 14 7 24 -6 10
-13 9 -19 -4 -28 -14 -10 -20 -7 -36 20 -11 17 -19 34 -18 39 3 12 -10 8 -30
-10 -10 -9 -18 -12 -18 -6 0 13 -49 35 -61 27 -11 -6 -2 -24 12 -24 6 0 7 5 3
12 -4 7 -3 8 5 4 15 -10 4 -27 -16 -24 -9 2 -18 -2 -20 -9 -6 -16 48 -7 60 10
6 8 7 6 3 -5 -7 -22 7 -23 28 -2 9 8 16 10 16 4 0 -6 -7 -13 -15 -16 -8 -4
-12 -11 -9 -16 4 -6 -3 -5 -15 2 -12 6 -27 9 -34 7 -7 -2 0 -10 15 -17 22 -10
25 -16 17 -27 -9 -9 -8 -13 0 -13 6 0 14 7 17 15 4 8 10 15 16 15 5 0 6 -4 3
-10 -3 -5 -1 -10 4 -10 6 0 11 2 11 4 0 2 3 12 6 20 5 12 2 15 -12 10 -11 -3
-15 -2 -8 3 6 4 13 14 15 21 2 7 9 -1 16 -18 6 -16 8 -28 3 -25 -4 3 -11 -2
-14 -11 -3 -8 -13 -14 -22 -12 -9 2 -19 -2 -21 -9 -6 -16 48 -7 60 10 6 8 7 5
3 -7 -5 -14 -2 -17 10 -12 8 3 18 6 20 6 2 0 4 5 4 11 0 5 -4 7 -10 4 -5 -3
-10 -2 -10 3 0 5 11 15 25 22 28 15 30 22 14 52 -6 12 -7 18 -1 14 5 -3 12 1
16 9 3 8 10 15 16 15 6 0 4 -7 -4 -16 -21 -21 -20 -35 2 -28 11 4 13 3 5 -3
-6 -5 -14 -21 -17 -37 -4 -23 -2 -27 12 -22 13 5 12 3 -3 -9 -17 -13 -18 -18
-7 -36 7 -11 10 -29 7 -39 -5 -17 -9 -18 -28 -7 -28 16 -59 16 -65 -1 -2 -8 3
-10 15 -6 11 4 14 3 6 -3 -17 -12 -25 -65 -10 -60 7 2 12 12 12 22 0 10 6 19
13 21 7 1 8 0 2 -3 -5 -2 -10 -9 -10 -14 0 -6 5 -7 10 -4 6 3 10 1 10 -4 0 -6
4 -11 8 -11 14 0 7 41 -9 51 -9 5 -10 9 -2 9 6 0 15 -4 18 -10 10 -16 29 -11
43 11 11 17 11 25 -3 45 -15 23 -10 30 18 25 12 -2 8 11 -9 30 -16 18 -11 44
7 34 15 -10 10 12 -6 28 -13 13 -13 16 0 27 8 7 15 15 15 19 0 7 -70 9 -88 3z"/>
<path d="M4615 5841 c9 -16 -13 -23 -36 -11 -14 8 -24 9 -31 2 -9 -9 -2 -29
29 -81 2 -2 11 3 20 11 25 22 51 19 45 -4 -3 -13 5 -22 29 -33 19 -8 27 -14
17 -15 -9 0 -18 -3 -21 -7 -2 -5 -2 -2 0 5 1 8 -3 12 -9 10 -7 -3 -13 -13 -13
-24 -1 -25 27 -82 32 -67 2 7 -1 22 -7 34 -7 12 -8 19 -2 15 5 -3 13 1 16 10
3 8 13 14 22 12 9 -2 19 3 21 10 3 7 1 12 -4 10 -14 -4 -75 39 -65 46 6 3 12
0 15 -6 2 -8 8 -9 13 -4 5 5 4 11 -4 13 -7 3 -19 11 -27 20 -8 8 -15 11 -15 7
0 -3 -7 -1 -16 7 -14 11 -14 13 1 21 16 9 12 28 -6 28 -6 0 -8 -4 -4 -9z m-37
-30 c11 -7 10 -9 -3 -14 -9 -4 -14 -3 -10 2 3 5 -1 12 -7 14 -7 3 -8 6 -3 6 6
0 16 -3 23 -8z m26 -25 c-10 -8 -21 -12 -24 -10 -5 6 21 24 34 24 6 0 1 -6
-10 -14z"/>
<path d="M4915 5834 c5 -11 9 -34 9 -52 0 -25 4 -31 16 -27 9 3 7 -1 -5 -10
-16 -13 -18 -19 -7 -35 6 -11 12 -23 12 -27 0 -5 -5 0 -11 9 -5 10 -17 15 -27
12 -11 -4 -13 -3 -5 3 17 12 25 65 10 60 -7 -2 -12 -12 -12 -23 0 -10 -6 -18
-12 -16 -17 3 -16 -13 2 -31 13 -13 13 -16 0 -27 -8 -7 -15 -16 -15 -21 0 -11
53 0 63 14 6 8 7 6 3 -5 -3 -10 2 -22 12 -27 9 -6 14 -11 9 -11 -4 0 -16 6
-27 12 -16 11 -22 9 -34 -7 -13 -18 -13 -21 2 -33 16 -13 16 -13 -2 -10 -10 2
-21 -2 -23 -9 -2 -7 3 -10 14 -8 10 2 23 4 30 4 6 1 11 10 10 21 -1 12 -7 18
-14 16 -7 -3 -10 1 -6 10 4 11 9 12 19 3 18 -15 86 -19 81 -5 -2 6 -13 10 -23
8 -12 -2 -15 0 -7 5 16 12 26 66 10 60 -7 -2 -12 -12 -12 -22 0 -10 -6 -19
-13 -21 -7 -1 -8 0 -2 3 5 2 10 9 10 14 0 6 -4 7 -10 4 -5 -3 -10 -2 -10 3 0
5 11 15 25 22 14 7 25 18 25 24 -1 16 -23 41 -42 49 -22 8 -23 21 -3 37 20 16
19 26 -2 34 -10 3 -24 9 -32 12 -11 5 -12 2 -6 -12z m57 -130 c-13 -9 -19 -9
-28 4 -9 13 -9 19 4 28 13 9 19 9 28 -4 9 -13 9 -19 -4 -28z m-57 -33 c-3 -6
-11 -11 -16 -11 -5 0 -4 6 3 14 14 16 24 13 13 -3z"/>
<path d="M4950 5720 c0 -5 5 -10 10 -10 6 0 10 5 10 10 0 6 -4 10 -10 10 -5 0
-10 -4 -10 -10z"/>
<path d="M5486 5823 c7 -36 10 -39 31 -22 14 12 16 12 8 0 -6 -11 -4 -13 11
-7 10 4 15 3 10 -1 -4 -4 -22 -8 -39 -8 -17 0 -33 -7 -35 -14 -3 -10 0 -11 9
-5 12 6 12 5 0 -9 -17 -21 -14 -24 22 -31 19 -3 27 -1 24 7 -2 7 -13 11 -23
10 -10 -1 -13 0 -6 3 6 3 10 10 6 15 -3 5 -1 9 4 9 5 0 15 -11 22 -25 15 -28
27 -31 54 -10 17 13 18 18 7 39 -8 13 -23 27 -34 30 -13 3 -18 10 -14 20 4 9
2 16 -3 16 -6 0 -10 -5 -10 -12 0 -6 -7 -4 -18 5 -26 24 -31 21 -26 -10z m86
-79 c-13 -9 -19 -9 -28 4 -9 13 -9 19 4 28 13 9 19 9 28 -4 9 -13 9 -19 -4
-28z"/>
<path d="M5550 5760 c0 -5 5 -10 10 -10 6 0 10 5 10 10 0 6 -4 10 -10 10 -5 0
-10 -4 -10 -10z"/>
<path d="M5607 5843 c-4 -3 -2 -12 4 -19 13 -15 2 -37 -13 -28 -6 4 -8 1 -6
-7 3 -8 11 -13 18 -11 7 2 21 -5 31 -14 21 -19 29 -16 32 14 0 11 5 18 9 16 4
-3 8 0 8 6 0 6 -8 10 -17 8 -11 -2 -17 -12 -16 -23 1 -11 0 -14 -3 -7 -3 6
-13 12 -22 12 -11 0 -6 6 12 15 16 9 37 13 47 10 17 -6 17 -8 3 -30 -13 -19
-13 -27 -2 -44 17 -27 29 -26 62 4 26 24 36 52 14 39 -7 -4 -5 2 5 13 9 11 17
26 17 34 0 9 -7 6 -18 -9 -17 -22 -32 -21 -32 2 0 6 5 4 10 -4 5 -8 10 -10 10
-4 0 12 -21 34 -33 34 -4 0 -6 -4 -2 -9 9 -16 -15 -24 -30 -11 -12 10 -20 9
-40 -4 -24 -16 -31 -12 -26 17 1 9 -13 9 -22 0z m137 -56 c7 -5 3 -7 -9 -5
-12 2 -21 -4 -23 -14 -2 -10 2 -18 8 -18 6 0 9 4 6 8 -2 4 5 9 17 9 21 2 21 1
-3 -17 -21 -16 -26 -17 -33 -4 -5 9 -3 27 5 44 7 17 15 24 17 18 2 -7 9 -17
15 -21z"/>
<path d="M4070 5815 c-8 -9 -8 -15 -2 -15 12 0 26 19 19 26 -2 2 -10 -2 -17
-11z"/>
<path d="M5106 5804 c-6 -16 -18 -16 -58 1 -24 10 -23 -6 2 -33 23 -24 41 -29
38 -10 -2 7 11 12 31 14 22 1 29 -1 20 -7 -8 -5 -22 -6 -32 -3 -10 3 -17 2
-16 -3 5 -28 -2 -33 -24 -18 -13 8 -27 12 -30 9 -4 -4 -13 -1 -21 5 -10 8 -16
9 -21 1 -10 -16 4 -30 23 -24 11 4 13 3 5 -3 -17 -12 -25 -65 -10 -60 7 2 12
12 12 22 0 10 6 19 13 21 7 1 8 0 2 -3 -5 -2 -10 -10 -10 -15 0 -6 3 -9 6 -5
4 3 13 0 21 -8 17 -18 34 -19 31 -3 -2 7 11 12 31 14 22 1 29 -1 20 -7 -8 -5
-22 -6 -32 -3 -10 3 -17 2 -16 -3 5 -28 -2 -33 -25 -18 -20 14 -28 14 -45 3
-23 -14 -26 -29 -10 -45 13 -13 2 -36 -13 -27 -6 4 -9 1 -6 -7 2 -7 18 -14 34
-14 16 -1 37 -5 47 -9 13 -6 22 -3 32 10 7 10 11 22 9 26 -7 10 -24 10 -23 1
5 -28 -2 -34 -22 -19 -12 8 -26 13 -33 12 -6 -2 -7 -1 -3 2 4 2 1 15 -7 27
-14 22 -14 24 4 30 10 3 28 0 39 -7 18 -11 23 -10 35 7 15 20 15 20 29 1 15
-20 47 -17 47 5 0 9 -3 9 -14 0 -10 -9 -15 -8 -19 3 -4 9 -1 13 6 10 7 -2 13
4 14 16 1 12 -5 20 -15 21 -46 4 -76 -1 -84 -13 -7 -10 -8 -8 -4 4 3 10 -2 22
-12 27 -9 6 -14 11 -9 11 4 0 16 -6 27 -12 16 -11 22 -9 34 7 15 20 15 20 29
1 15 -20 47 -17 47 5 0 9 -3 9 -14 0 -10 -9 -15 -8 -19 3 -4 9 -1 13 6 10 7
-2 13 4 14 16 1 11 -3 20 -9 20 -6 0 -19 7 -28 15 -16 14 -18 14 -24 -1z"/>
<path d="M4790 5800 c0 -5 5 -10 10 -10 6 0 10 5 10 10 0 6 -4 10 -10 10 -5 0
-10 -4 -10 -10z"/>
<path d="M5179 5808 c-7 -22 -2 -51 10 -61 20 -16 53 -16 58 0 3 8 -4 10 -21
7 -28 -5 -44 12 -27 29 15 15 14 27 -4 27 -8 0 -15 -1 -16 -2z"/>
<path d="M5280 5795 c-7 -8 -19 -14 -28 -13 -8 2 -17 -3 -20 -11 -3 -8 0 -11
6 -7 15 9 26 -14 13 -27 -18 -18 -13 -37 14 -49 14 -6 25 -15 25 -20 0 -5 -4
-7 -9 -4 -5 4 -11 3 -14 -1 -2 -5 -2 -2 0 5 1 8 -3 12 -9 9 -7 -2 -11 -13 -10
-23 5 -27 9 -29 29 -13 14 12 15 12 9 0 -6 -9 -5 -12 4 -9 25 8 18 49 -11 67
-22 14 -25 19 -15 33 9 13 15 14 28 4 14 -10 15 -15 5 -26 -9 -10 -9 -12 3 -8
29 9 23 38 -12 53 -18 8 -25 14 -16 15 9 0 18 3 21 8 2 4 2 1 1 -6 -2 -7 4
-12 13 -10 10 2 18 -3 19 -9 1 -7 2 -19 3 -27 0 -8 10 -14 21 -13 12 1 18 7
16 14 -3 7 1 10 10 6 12 -4 12 -8 2 -21 -11 -13 -10 -15 3 -10 13 5 16 2 12
-13 -3 -11 0 -19 6 -19 7 0 10 4 7 9 -3 4 5 7 17 6 12 -1 32 4 44 12 19 11 23
10 28 -8 4 -12 2 -26 -3 -31 -8 -8 -9 -4 -5 11 3 13 1 21 -6 21 -7 0 -10 -4
-6 -9 3 -6 -8 -8 -26 -6 -26 4 -29 2 -19 -10 6 -7 18 -11 26 -8 10 4 17 -2 21
-15 4 -17 23 -32 43 -34 3 0 13 -4 24 -10 12 -7 16 -7 12 0 -12 19 15 24 35 6
18 -16 20 -16 40 2 20 18 22 18 34 1 16 -22 20 -22 22 3 1 11 -1 19 -5 19 -28
-4 -32 2 -16 26 13 20 14 28 4 40 -13 16 -4 39 12 29 6 -4 8 -1 6 7 -3 8 -11
13 -18 11 -7 -2 -21 5 -31 14 -22 20 -26 18 -33 -19 -3 -19 -1 -27 7 -24 7 2
11 13 10 23 -1 10 0 13 3 7 3 -7 13 -13 22 -13 10 0 3 -8 -15 -16 -18 -9 -33
-21 -33 -26 0 -6 11 -3 24 6 23 15 25 14 31 -3 3 -10 -1 -31 -10 -47 -9 -18
-15 -23 -15 -12 0 9 -6 19 -12 22 -7 3 -4 4 7 3 11 -1 21 5 23 16 2 9 -2 17
-8 17 -6 0 -8 -5 -4 -12 4 -6 3 -8 -4 -4 -6 3 -18 -1 -26 -10 -17 -17 -22 -39
-7 -29 15 9 25 -15 12 -28 -9 -9 -11 -8 -5 6 3 10 3 17 -2 16 -27 -5 -36 1
-24 16 16 19 21 87 6 82 -6 -2 -10 -13 -8 -23 2 -12 0 -15 -5 -7 -12 16 -66
26 -60 10 2 -7 12 -12 22 -12 10 0 19 -6 21 -13 1 -7 0 -8 -3 -2 -2 5 -9 10
-14 10 -6 0 -7 -4 -4 -10 3 -5 1 -10 -4 -10 -6 0 -11 -4 -11 -8 0 -14 41 -7
51 9 14 23 10 4 -6 -27 -9 -18 -15 -23 -15 -12 0 11 -7 16 -20 15 -12 -1 -18
-7 -16 -14 3 -7 -1 -10 -9 -7 -12 5 -12 9 1 29 13 20 13 27 2 44 -13 22 -33
27 -42 12 -3 -5 -17 -8 -32 -8 -30 0 -48 33 -30 57 9 13 9 13 -5 3 -27 -22
-89 2 -89 33 0 18 -14 18 -30 -1z"/>
<path d="M5786 5801 c-3 -5 0 -14 8 -20 10 -9 15 -8 19 3 9 22 -15 37 -27 17z"/>
<path d="M4163 5773 c-19 -7 -16 -19 5 -20 10 -1 19 5 19 13 0 15 -4 16 -24 7z"/>
<path d="M4334 5759 c-3 -6 -15 -9 -25 -6 -11 3 -24 -3 -33 -18 -13 -20 -13
-25 -1 -35 8 -7 12 -16 9 -21 -3 -5 -1 -9 5 -9 17 0 21 17 6 30 -15 12 -10 40
7 40 6 0 5 -6 -2 -15 -8 -10 -9 -15 -1 -15 6 0 16 9 23 19 9 14 16 17 24 10
14 -11 8 -39 -8 -39 -6 0 -5 6 2 15 15 18 -1 20 -18 3 -17 -17 -15 -25 8 -31
13 -3 24 3 34 18 13 20 13 25 1 35 -8 7 -12 16 -9 21 3 5 1 9 -5 9 -5 0 -13
-5 -17 -11z"/>
<path d="M4416 5763 c-4 -5 -13 -8 -18 -8 -6 0 -13 -5 -15 -11 -2 -6 3 -11 12
-11 8 0 15 5 15 10 0 5 6 4 14 -3 16 -12 11 -40 -6 -40 -6 0 -5 6 2 15 11 13
9 15 -8 12 -12 -2 -25 -7 -29 -11 -12 -12 -10 -57 2 -53 5 3 9 14 8 26 -2 18
-1 20 11 9 8 -7 12 -16 9 -20 -2 -5 -1 -8 4 -8 4 0 16 13 25 29 14 26 14 32 2
42 -7 6 -11 15 -8 20 6 11 -10 12 -20 2z"/>
<path d="M4515 5760 c-3 -5 -1 -10 4 -10 6 0 11 5 11 10 0 6 -2 10 -4 10 -3 0
-8 -4 -11 -10z"/>
<path d="M4600 5755 c-7 -8 -19 -14 -28 -13 -8 2 -17 -2 -19 -9 -6 -16 48 -7
60 10 6 8 7 6 4 -5 -5 -15 15 -33 26 -22 6 6 -16 54 -24 54 -4 0 -12 -7 -19
-15z"/>
<path d="M4817 5764 c-3 -3 -3 -12 0 -20 3 -8 -2 -17 -11 -20 -9 -3 -13 -11
-10 -16 4 -6 -3 -5 -15 2 -12 6 -27 9 -34 7 -7 -2 2 -11 19 -20 17 -9 34 -13
37 -10 4 3 13 0 22 -7 18 -15 30 -7 22 14 -4 10 -13 13 -24 10 -12 -4 -14 -3
-6 3 14 10 25 63 14 63 -4 0 -10 -3 -14 -6z"/>
<path d="M4246 5746 c3 -8 0 -17 -6 -21 -9 -6 -9 -10 1 -17 10 -7 8 -8 -8 -3
-22 6 -35 -6 -40 -39 -3 -16 -1 -17 12 -6 9 7 15 8 15 2 0 -17 -28 -22 -41 -6
-6 8 -14 12 -17 9 -3 -3 3 -14 12 -24 17 -18 19 -18 47 -3 16 10 29 21 29 25
0 5 -3 6 -7 4 -5 -3 -13 1 -20 8 -9 10 -7 13 12 11 13 0 21 -4 19 -7 -2 -4 3
-12 11 -19 15 -12 10 -40 -7 -40 -6 0 -4 8 3 17 12 15 12 16 -4 10 -10 -4 -21
-7 -23 -7 -3 0 -2 -5 2 -12 4 -7 3 -8 -5 -4 -12 8 -41 -10 -41 -25 0 -4 9 -11
21 -14 17 -6 18 -9 7 -23 -11 -13 -11 -15 4 -9 13 4 15 2 11 -10 -4 -9 -2 -14
3 -11 5 3 15 -1 23 -9 12 -13 11 -14 -8 -8 -15 4 -23 2 -27 -10 -5 -12 -9 -13
-20 -4 -8 6 -11 15 -8 20 3 5 1 9 -5 9 -17 0 -21 -17 -6 -30 7 -6 11 -19 8
-28 -6 -14 -4 -15 8 -5 11 9 14 7 15 -13 1 -13 -2 -24 -8 -24 -5 0 -7 4 -3 9
3 5 -4 13 -15 16 -18 6 -19 9 -8 22 11 14 10 15 -10 9 -14 -5 -22 -3 -22 4 0
6 5 8 10 5 6 -3 10 -2 10 4 0 18 -20 23 -26 6 -5 -11 -10 -13 -19 -5 -9 8 -12
4 -12 -15 0 -18 3 -23 11 -16 8 7 12 4 12 -8 0 -16 -4 -17 -23 -8 -19 8 -21
13 -10 25 10 13 9 15 -8 8 -17 -6 -17 -4 4 18 26 27 19 36 -8 12 -14 -12 -18
-12 -30 1 -12 13 -11 14 8 8 15 -4 23 -2 27 10 5 11 10 13 19 5 9 -8 13 -4 13
15 0 18 -4 23 -12 16 -9 -8 -12 0 -11 30 1 31 -4 43 -23 55 -17 11 -27 13 -34
6 -13 -13 -3 -42 13 -42 8 0 8 4 -1 15 -9 10 -9 15 -1 15 6 0 11 -5 11 -11 0
-5 4 -8 8 -5 4 2 8 -11 9 -30 0 -18 -4 -31 -9 -28 -5 3 -6 15 -2 27 6 19 5 20
-8 9 -13 -10 -17 -10 -21 1 -9 25 -47 11 -80 -28 -19 -24 -25 -36 -15 -33 9 4
22 1 28 -7 13 -16 30 -11 30 7 0 6 -3 8 -7 5 -3 -4 -12 -2 -19 4 -10 8 -9 14
7 30 25 25 37 25 14 -1 -10 -11 -16 -23 -13 -26 3 -3 16 8 28 23 22 28 22 28
15 3 -7 -22 -6 -23 8 -12 13 11 16 10 22 -8 3 -11 11 -18 16 -15 5 4 9 2 9 -3
0 -6 -11 -9 -24 -8 -17 1 -21 4 -15 12 7 8 2 12 -16 12 -19 0 -23 -4 -15 -13
8 -9 6 -14 -5 -19 -9 -3 -14 -10 -10 -15 3 -5 1 -12 -5 -16 -5 -3 -10 -11 -10
-17 0 -6 9 -3 20 7 11 10 17 22 14 26 -3 5 0 9 6 9 7 0 9 -8 4 -22 -6 -19 -5
-21 8 -10 12 10 17 8 25 -11 9 -19 8 -23 -8 -23 -12 0 -15 4 -8 12 7 8 2 12
-17 12 -18 0 -22 -4 -15 -11 7 -7 5 -14 -6 -22 -21 -16 -10 -50 13 -41 14 5
15 4 5 -8 -9 -11 -7 -13 15 -13 16 0 22 3 16 9 -7 7 -3 17 10 30 11 11 22 18
24 15 2 -2 -2 -10 -11 -17 -8 -7 -15 -17 -15 -23 0 -6 11 0 26 14 22 21 24 21
18 4 -7 -17 -5 -18 8 -8 12 11 17 8 28 -15 8 -15 15 -37 16 -49 3 -21 2 -21
-17 -5 -23 20 -24 26 -3 18 10 -4 14 -1 11 6 -2 7 -12 12 -21 12 -12 -2 -14 1
-6 11 8 9 4 13 -15 13 -19 0 -23 -4 -15 -13 8 -9 6 -14 -5 -19 -12 -4 -14 -12
-10 -27 6 -19 5 -20 -8 -8 -13 12 -13 16 -1 30 24 27 15 34 -12 8 -22 -21 -24
-21 -18 -4 7 17 5 18 -7 8 -12 -10 -18 -6 -34 25 -11 20 -20 39 -22 41 -4 7
-33 -21 -33 -32 0 -7 4 -7 12 1 9 9 16 5 30 -18 21 -35 24 -52 5 -25 -9 12
-19 15 -28 10 -12 -7 -12 -6 -1 7 11 13 9 16 -14 16 -17 0 -22 -4 -15 -11 6
-6 3 -16 -12 -28 -12 -10 -16 -18 -9 -19 6 0 12 -5 12 -11 0 -5 -4 -8 -9 -5
-5 3 -15 -2 -22 -11 -12 -14 -11 -15 9 -9 14 5 22 3 22 -4 0 -6 -4 -9 -9 -6
-5 3 -15 -2 -22 -11 -12 -15 -12 -16 4 -10 11 4 16 3 12 -3 -3 -6 1 -10 9 -10
9 0 16 -5 16 -10 0 -7 -7 -7 -21 1 -14 7 -24 8 -31 1 -13 -13 -3 -42 13 -42 8
0 8 4 -1 15 -9 10 -9 15 -1 15 6 0 11 -4 11 -8 0 -13 40 -12 41 1 0 7 2 20 4
30 2 12 -1 17 -10 13 -9 -3 -12 0 -8 10 4 10 9 12 18 4 9 -8 13 -4 13 15 0 18
-4 23 -12 16 -8 -6 -11 -2 -12 15 -1 13 2 24 8 24 5 0 7 -4 4 -9 -8 -12 20
-22 39 -15 8 4 15 1 15 -6 0 -6 -4 -9 -9 -6 -5 3 -15 -2 -22 -11 -12 -14 -11
-15 9 -9 14 5 22 3 22 -4 0 -6 -4 -9 -9 -6 -5 3 -15 -2 -22 -11 -12 -15 -12
-16 4 -10 11 4 16 3 12 -3 -3 -6 1 -10 9 -10 9 0 16 -5 16 -10 0 -7 -7 -7 -21
1 -14 7 -24 8 -31 1 -13 -13 -3 -42 13 -42 8 0 8 4 -1 15 -9 10 -9 15 -1 15 6
0 11 -4 11 -8 0 -13 40 -12 41 1 0 7 2 20 4 30 2 12 -1 17 -10 13 -9 -3 -12 0
-8 10 4 10 9 12 18 4 9 -8 13 -4 13 15 0 18 -4 23 -12 16 -8 -7 -12 -4 -12 8
0 16 4 17 23 8 19 -8 21 -13 11 -25 -11 -13 -9 -14 10 -8 14 5 22 3 22 -4 0
-6 -4 -9 -9 -6 -5 3 -15 -2 -22 -11 -12 -15 -12 -16 4 -10 11 4 16 3 12 -3 -3
-6 1 -10 9 -10 9 0 16 -5 16 -10 0 -7 -7 -7 -21 1 -14 7 -24 8 -31 1 -13 -13
-3 -42 13 -42 8 0 8 4 -1 15 -9 10 -9 15 -1 15 6 0 11 -4 11 -8 0 -13 40 -12
41 1 0 7 2 20 4 30 2 12 -1 17 -10 13 -9 -3 -12 0 -8 10 4 10 9 12 18 4 9 -8
13 -4 13 15 0 18 -4 23 -12 16 -8 -6 -11 -2 -12 15 -1 13 2 24 8 24 5 0 7 -4
3 -9 -3 -5 4 -13 15 -16 18 -6 19 -9 8 -22 -11 -14 -10 -15 10 -9 14 5 22 3
22 -4 0 -6 -4 -9 -9 -6 -5 3 -15 -2 -22 -11 -12 -15 -12 -16 6 -10 16 6 16 4
-4 -12 -14 -11 -22 -25 -18 -33 4 -11 -1 -15 -16 -14 -12 1 -27 -2 -34 -7 -19
-14 13 -56 37 -50 22 6 25 13 10 31 -6 6 -7 10 -4 8 3 -3 17 5 30 17 22 21 32
22 172 21 81 0 153 -3 159 -7 6 -4 16 0 23 8 13 15 6 35 -12 35 -21 0 -47 31
-40 48 5 15 4 15 -11 3 -17 -13 -16 -15 4 -38 13 -12 28 -23 36 -23 7 0 13 -4
13 -10 0 -15 -23 -7 -38 13 -13 17 -38 25 -28 8 3 -4 -5 -13 -18 -19 -18 -8
-25 -6 -34 9 -7 10 -17 19 -23 19 -5 0 -8 -4 -5 -9 3 -4 -5 -13 -18 -19 -18
-8 -25 -6 -34 9 -7 10 -17 19 -23 19 -5 0 -8 -4 -5 -9 3 -4 -5 -13 -18 -19
-18 -8 -25 -6 -34 9 -11 18 -38 28 -29 12 5 -12 -42 -53 -48 -42 -4 5 -1 9 5
9 5 0 19 14 29 30 18 30 18 30 36 10 23 -26 42 -25 50 1 l7 21 22 -21 c27 -25
42 -27 50 -5 8 21 8 21 -9 21 -10 0 -14 -6 -10 -16 5 -11 1 -11 -14 3 -12 11
-17 24 -13 34 5 14 3 15 -9 5 -11 -9 -14 -7 -15 13 -1 13 2 24 8 24 5 0 7 -4
3 -9 -3 -5 4 -13 15 -16 17 -5 19 -9 9 -21 -9 -12 -8 -14 7 -11 29 4 46 18 40
33 -4 10 0 11 19 2 19 -9 22 -14 14 -25 -9 -11 -7 -13 9 -10 12 2 25 7 29 11
12 12 10 57 -2 53 -5 -3 -9 -14 -8 -26 2 -18 1 -20 -11 -9 -8 7 -11 17 -8 22
3 5 -2 7 -11 3 -12 -4 -14 -2 -10 11 6 14 4 15 -8 5 -12 -10 -18 -6 -34 25
-11 20 -20 39 -22 41 -4 6 -33 -21 -33 -31 0 -7 5 -6 13 1 11 8 17 5 27 -17 8
-15 15 -37 16 -49 3 -21 2 -21 -17 -5 -23 20 -24 26 -3 18 10 -4 14 -1 11 6
-2 7 -12 12 -21 12 -14 -2 -15 1 -4 14 11 13 10 15 -4 9 -9 -3 -22 1 -28 8
-13 15 -30 11 -30 -6 0 -6 4 -8 9 -5 5 3 14 0 20 -8 9 -11 8 -15 -4 -20 -12
-4 -14 -12 -10 -27 6 -19 5 -20 -8 -8 -8 8 -12 18 -9 23 3 5 -2 7 -11 3 -12
-4 -14 -2 -10 11 6 14 4 15 -9 5 -12 -11 -17 -8 -28 15 -8 15 -15 37 -16 49
-3 21 -2 21 17 5 23 -20 24 -26 3 -18 -10 4 -14 1 -11 -6 2 -7 12 -12 21 -12
14 2 15 -1 4 -14 -11 -13 -10 -15 4 -9 9 3 22 -1 28 -8 13 -15 30 -11 30 6 0
6 -4 8 -9 5 -5 -3 -14 0 -20 8 -9 11 -8 15 4 20 11 4 14 12 10 27 -5 15 -4 19
4 15 6 -4 11 -14 11 -22 0 -17 12 -18 28 -2 17 17 15 33 -2 19 -11 -10 -16 -8
-21 9 -3 11 -11 18 -16 15 -5 -4 -9 -2 -9 3 0 6 11 9 24 8 20 -1 22 -4 13 -15
-10 -12 -9 -14 5 -8 9 3 22 -1 28 -8 13 -15 30 -11 30 6 0 6 -4 8 -9 5 -5 -3
-14 0 -20 8 -9 10 -8 15 4 20 17 6 12 26 -6 26 -6 0 -7 -4 -4 -10 3 -5 1 -10
-5 -10 -7 0 -9 8 -4 22 6 19 5 21 -8 10 -12 -10 -17 -8 -25 11 -9 19 -8 23 8
23 14 0 16 -3 6 -15 -10 -12 -9 -14 5 -8 9 3 22 -1 28 -8 13 -15 30 -11 30 6
0 6 -4 8 -9 5 -5 -3 -14 0 -20 8 -9 11 -8 15 5 20 10 4 14 12 10 22 -4 9 -1
23 5 30 7 8 7 14 1 14 -16 0 -33 -26 -27 -43 5 -12 -2 -15 -34 -13 -21 0 -43
4 -47 8 -4 5 7 6 24 4 24 -2 35 2 46 19 14 21 14 25 0 36 -8 6 -12 14 -10 17
3 2 -2 11 -10 19 -11 11 -12 18 -3 29 6 7 8 18 4 24 -9 15 -25 12 -19 -4z
m-181 -306 c-3 -4 -16 -7 -30 -7 -13 0 -23 3 -20 7 3 4 16 8 30 8 13 0 23 -4
20 -8z m-75 -80 c0 -5 -2 -10 -4 -10 -3 0 -8 5 -11 10 -3 6 -1 10 4 10 6 0 11
-4 11 -10z m228 -38 c-11 -13 -9 -14 10 -8 14 5 22 3 22 -4 0 -6 -5 -8 -12 -4
-8 5 -9 2 -4 -11 7 -18 6 -18 -13 -1 -12 11 -17 24 -13 34 5 14 3 15 -9 5 -12
-10 -15 -8 -15 6 0 16 4 17 23 8 19 -8 21 -13 11 -25z m-114 -127 c3 -8 1 -15
-3 -15 -5 0 -11 7 -15 15 -3 8 -1 15 3 15 5 0 11 -7 15 -15z"/>
<path d="M4465 5750 c-3 -5 -4 -14 0 -19 3 -5 0 -13 -6 -16 -5 -4 -8 -14 -5
-22 3 -8 2 -12 -3 -9 -5 3 -12 -1 -15 -10 -9 -24 -7 -28 9 -14 9 7 15 8 15 2
0 -17 -28 -22 -40 -7 -13 15 -30 11 -30 -6 0 -6 4 -8 9 -5 5 3 14 -1 21 -9 19
-23 58 7 54 42 -1 15 2 33 8 40 8 9 7 13 -2 13 -8 0 -11 2 -8 5 3 3 13 2 22
-1 14 -5 15 -9 4 -15 -17 -11 -17 -37 1 -74 14 -30 14 -30 24 -7 6 12 14 22
20 22 5 0 4 -6 -2 -14 -17 -20 -23 -58 -8 -53 7 2 12 12 12 23 0 10 6 18 13
17 16 -4 15 12 -3 30 -8 8 -11 17 -8 21 4 3 2 6 -4 6 -5 0 -14 -10 -20 -22 -8
-19 -10 -20 -16 -4 -4 9 -3 15 2 12 5 -3 12 1 15 10 3 8 13 14 22 12 9 -2 19
4 22 12 3 8 2 12 -2 8 -4 -3 -24 5 -43 18 -40 27 -49 29 -58 14z m59 -44 c-10
-8 -21 -12 -24 -10 -5 6 21 24 34 24 6 0 1 -6 -10 -14z"/>
<path d="M3964 5735 c-7 -17 3 -35 18 -35 7 0 6 6 -2 15 -7 8 -9 15 -5 15 4 0
15 -10 25 -22 14 -18 21 -20 31 -11 15 15 3 47 -16 39 -8 -3 -17 -1 -20 4 -9
15 -25 12 -31 -5z m61 -15 c3 -5 1 -10 -4 -10 -6 0 -11 5 -11 10 0 6 2 10 4
10 3 0 8 -4 11 -10z"/>
<path d="M5110 5730 c0 -5 5 -10 11 -10 5 0 7 5 4 10 -3 6 -8 10 -11 10 -2 0
-4 -4 -4 -10z"/>
<path d="M4132 5716 c-12 -6 -20 -16 -18 -22 2 -6 0 -16 -6 -22 -12 -12 -2
-32 17 -32 21 0 27 17 15 40 -7 13 -7 20 0 20 5 0 10 -6 10 -13 0 -7 8 -13 18
-14 10 -1 19 5 19 13 0 8 -6 13 -13 10 -8 -3 -11 0 -8 8 7 19 -7 24 -34 12z
m-2 -56 c0 -5 -2 -10 -4 -10 -3 0 -8 5 -11 10 -3 6 -1 10 4 10 6 0 11 -4 11
-10z"/>
<path d="M5179 5728 c-10 -30 -2 -52 22 -67 23 -14 26 -20 16 -31 -10 -10 -9
-12 5 -7 12 4 15 2 11 -10 -3 -8 -1 -18 6 -22 9 -6 8 -11 -4 -21 -13 -11 -15
-10 -10 1 3 8 -1 23 -8 33 -12 17 -14 17 -20 2 -4 -9 -2 -16 3 -16 6 0 10 -5
10 -11 0 -8 -6 -7 -17 2 -15 12 -16 12 -10 -4 4 -10 7 -21 7 -23 0 -3 5 -2 10
1 6 3 10 2 10 -3 0 -6 -11 -9 -24 -8 -17 1 -21 4 -15 12 7 8 2 12 -16 12 -20
0 -23 -3 -14 -14 8 -10 8 -14 0 -14 -6 0 -11 4 -11 9 0 5 -8 8 -17 6 -10 -2
-23 -4 -30 -4 -6 -1 -11 -10 -10 -21 1 -12 7 -18 14 -16 7 3 10 -1 7 -9 -5
-12 -9 -12 -29 1 -39 26 -86 -11 -54 -43 13 -13 3 -36 -12 -28 -5 4 -9 2 -9
-3 0 -19 14 -21 32 -5 16 15 17 18 3 39 -13 21 -13 23 6 29 12 4 26 2 31 -3 8
-8 4 -9 -11 -5 -13 3 -21 1 -21 -6 0 -7 4 -10 8 -7 4 2 8 -4 9 -14 1 -11 -2
-22 -8 -25 -5 -4 -9 -11 -9 -17 0 -6 9 -3 19 6 11 10 17 24 14 32 -3 8 3 17
13 21 11 4 24 14 31 22 10 13 9 18 -4 29 -19 14 -5 16 17 2 12 -7 12 -12 2
-22 -17 -17 -15 -33 3 -18 9 7 18 10 22 7 9 -9 34 13 27 24 -3 5 0 9 6 9 7 0
9 -7 6 -16 -3 -8 -1 -24 5 -35 8 -16 13 -18 25 -9 7 7 11 17 8 22 -3 5 2 18
11 28 9 10 14 23 11 29 -3 5 0 15 7 23 8 7 12 19 9 26 -2 6 1 12 8 12 6 0 9
-4 6 -9 -9 -13 21 -34 36 -25 10 6 10 4 0 -9 -14 -16 -10 -17 51 -8 5 0 5 5 2
11 -3 5 -8 20 -10 32 -6 29 -20 42 -40 34 -11 -4 -14 -12 -10 -26 4 -13 2 -20
-6 -20 -7 0 -9 3 -6 7 11 10 -13 32 -29 26 -8 -3 -17 4 -23 20 -6 14 -19 28
-30 32 -12 3 -21 11 -21 16 0 6 4 8 9 5 5 -4 11 -3 14 1 2 5 2 3 1 -4 -3 -12
20 -25 29 -16 5 4 0 17 -20 52 -2 2 -10 -2 -20 -10 -11 -9 -14 -10 -9 -1 4 6
2 12 -3 12 -6 0 -11 -1 -12 -2z m161 -130 c0 -5 -5 -8 -11 -8 -5 0 -7 5 -4 10
3 6 1 10 -5 10 -6 0 -8 5 -4 11 6 11 23 -6 24 -23z m10 -28 c0 -5 -2 -10 -4
-10 -3 0 -8 5 -11 10 -3 6 -1 10 4 10 6 0 11 -4 11 -10z m-115 -30 c3 -5 1
-10 -4 -10 -6 0 -11 5 -11 10 0 6 2 10 4 10 3 0 8 -4 11 -10z m-75 -20 c0 -5
-4 -10 -10 -10 -5 0 -10 5 -10 10 0 6 5 10 10 10 6 0 10 -4 10 -10z m48 -16
c0 -17 -3 -22 -8 -13 -5 6 -6 18 -3 26 8 19 11 16 11 -13z"/>
<path d="M5270 5720 c0 -5 5 -10 10 -10 6 0 10 5 10 10 0 6 -4 10 -10 10 -5 0
-10 -4 -10 -10z"/>
<path d="M4580 5715 c0 -2 14 -11 30 -20 17 -9 30 -11 30 -6 0 6 -9 15 -19 21
-21 11 -41 13 -41 5z"/>
<path d="M5315 5702 c-10 -11 -5 -23 8 -16 10 6 10 4 0 -7 -17 -17 -16 -29 1
-29 23 0 41 -29 45 -73 1 -4 13 -12 27 -17 16 -7 24 -16 21 -24 -3 -8 1 -20
10 -28 14 -11 15 -10 9 9 -4 12 -2 24 4 28 15 9 12 25 -4 25 -15 0 -30 27 -27
48 1 6 -5 13 -14 13 -36 3 -40 5 -37 22 2 9 -3 15 -10 13 -7 -1 -10 -1 -5 1 4
3 5 9 1 14 -3 5 -1 9 4 9 5 0 14 -12 21 -26 12 -27 41 -30 49 -4 4 12 2 13 -9
3 -10 -10 -16 -7 -29 14 -14 24 -52 38 -65 25z m95 -117 c0 -12 -19 -12 -23 0
-4 9 -1 12 9 8 7 -3 14 -7 14 -8z"/>
<path d="M3984 5688 c-14 -19 -11 -51 5 -56 9 -3 11 0 6 9 -6 11 -5 12 6 2 19
-18 26 -16 33 10 7 28 6 33 -6 29 -6 -1 -16 2 -23 8 -9 7 -15 7 -21 -2z m36
-29 c0 -4 -7 -6 -15 -3 -8 4 -15 10 -15 15 0 4 7 6 15 3 8 -4 15 -10 15 -15z"/>
<path d="M4565 5690 c-3 -5 -1 -19 5 -30 12 -22 5 -44 -11 -35 -5 4 -9 2 -9
-4 0 -18 20 -23 26 -7 3 9 10 14 14 11 5 -3 11 4 15 15 3 11 11 20 17 20 7 0
6 -5 -1 -14 -17 -20 -23 -58 -8 -53 7 2 11 11 9 20 -3 20 14 31 24 16 4 -8 3
-9 -4 -5 -7 4 -12 3 -12 -3 0 -14 18 -23 24 -12 10 16 -14 57 -44 74 -33 20
-37 20 -45 7z m36 -15 c5 4 6 -1 2 -10 -5 -13 -7 -14 -14 -3 -5 7 -8 18 -8 23
0 6 3 4 6 -3 2 -6 9 -10 14 -7z"/>
<path d="M4725 5690 c-3 -5 2 -24 11 -42 10 -18 19 -28 21 -21 2 7 -1 22 -7
33 -6 12 -9 24 -6 28 3 3 6 0 6 -7 0 -7 5 -9 11 -5 8 4 7 9 -2 15 -18 11 -26
11 -34 -1z"/>
<path d="M4356 5683 c-4 -5 -17 -8 -29 -8 -11 0 -22 -5 -24 -10 -5 -15 43 -13
58 2 7 7 10 15 8 18 -3 3 -9 2 -13 -2z"/>
<path d="M4689 5683 c-6 -40 -3 -92 6 -90 5 2 9 11 7 20 -3 20 14 31 24 16 5
-8 3 -9 -6 -4 -8 5 -11 3 -8 -6 3 -8 11 -13 17 -11 7 1 10 -2 6 -8 -3 -6 -11
-8 -16 -5 -5 4 -12 -1 -15 -10 -5 -12 -10 -13 -20 -4 -8 6 -11 15 -8 20 3 5 1
9 -5 9 -5 0 -13 -5 -16 -10 -4 -6 -11 -8 -16 -5 -5 4 -12 -1 -15 -10 -5 -12
-10 -13 -20 -4 -8 6 -11 15 -8 20 3 5 1 9 -5 9 -5 0 -13 -5 -16 -10 -4 -6 -11
-8 -16 -5 -5 4 -12 -1 -15 -10 -5 -12 -10 -13 -20 -4 -8 6 -11 15 -8 20 3 5 1
9 -5 9 -5 0 -13 9 -16 20 -4 11 -11 17 -17 14 -6 -4 -5 -10 3 -16 10 -7 9 -8
-5 -4 -10 4 -25 1 -32 -5 -17 -14 -18 -33 -1 -22 15 10 57 12 51 2 -2 -4 3
-12 11 -19 7 -6 11 -19 8 -28 -6 -14 -4 -15 8 -5 11 9 14 7 15 -13 1 -13 -2
-24 -8 -24 -5 0 -7 4 -3 9 3 5 -4 13 -15 16 -17 5 -19 10 -9 21 14 17 -2 19
-19 2 -16 -16 -15 -28 2 -28 8 0 18 -4 21 -10 4 -6 -3 -9 -16 -7 -12 1 -24 -3
-26 -9 -2 -6 8 -10 27 -9 25 2 28 0 17 -13 -10 -13 -9 -15 5 -9 9 3 22 -1 28
-8 13 -15 30 -11 30 6 0 6 -4 8 -9 5 -5 -3 -14 0 -20 8 -9 11 -8 15 4 20 12 4
14 12 10 27 -6 19 -5 20 8 8 8 -8 12 -18 9 -23 -3 -5 2 -7 11 -3 12 4 14 2 10
-11 -6 -14 -4 -15 8 -5 22 17 58 -49 40 -71 -7 -8 -9 -21 -5 -28 6 -10 3 -9
-9 1 -16 13 -16 14 0 26 21 16 10 50 -13 41 -15 -6 -15 -4 -3 11 12 15 12 16
-3 10 -9 -3 -22 1 -28 8 -13 16 -30 11 -30 -7 0 -6 3 -8 7 -5 3 4 12 2 19 -4
10 -8 9 -14 -7 -30 -21 -21 -34 -25 -23 -7 5 7 2 9 -9 5 -12 -4 -14 -2 -10 11
6 15 4 15 -9 4 -14 -11 -17 -10 -23 7 -3 12 -10 21 -14 21 -14 0 -33 -29 -26
-40 4 -6 -3 -6 -19 1 -22 10 -24 15 -13 27 10 13 9 15 -5 9 -13 -4 -15 -2 -11
10 4 9 2 14 -3 11 -5 -3 -15 0 -22 8 -11 12 -9 13 9 11 12 -1 23 3 26 8 4 12
-41 14 -53 2 -4 -4 -9 -17 -11 -29 -3 -16 -1 -18 10 -9 11 8 16 5 25 -14 9
-20 9 -23 -3 -19 -8 3 -20 -4 -27 -15 -7 -12 -17 -21 -22 -21 -4 0 -3 7 4 15
9 11 9 15 1 15 -17 0 -25 -30 -12 -43 10 -9 17 -7 31 11 10 12 21 22 25 22 4
0 2 -7 -5 -15 -9 -11 -9 -15 -1 -15 6 0 14 7 17 15 4 8 10 15 16 15 5 0 6 -5
2 -12 -5 -7 -2 -9 9 -5 12 4 14 2 10 -11 -6 -15 -4 -15 9 -4 14 11 17 10 23
-8 3 -11 11 -18 16 -15 5 4 9 1 9 -5 0 -7 -7 -9 -16 -6 -16 6 -44 -9 -44 -25
0 -4 9 -11 21 -14 16 -5 18 -10 8 -21 -14 -17 2 -19 19 -2 16 16 15 28 -2 28
-8 0 -18 5 -22 11 -4 8 0 9 15 4 15 -4 23 -1 27 10 5 12 9 13 20 4 8 -6 11
-15 8 -20 -3 -5 -1 -9 5 -9 17 0 21 17 6 30 -7 6 -11 19 -8 28 6 14 4 15 -8 5
-12 -10 -15 -8 -15 6 0 16 4 17 23 8 19 -8 21 -13 10 -25 -10 -13 -9 -15 5 -9
13 4 15 2 11 -10 -4 -9 -2 -14 3 -11 5 3 15 -1 23 -9 12 -13 11 -14 -8 -8 -15
4 -23 2 -27 -10 -5 -12 -9 -13 -20 -4 -8 6 -11 15 -8 20 3 5 1 9 -5 9 -17 0
-21 -17 -6 -30 7 -6 11 -19 8 -28 -5 -13 0 -11 19 6 14 13 32 20 40 17 17 -7
31 8 35 39 3 15 0 16 -10 7 -11 -8 -16 -6 -24 12 -9 19 -8 23 8 23 14 0 16 -3
6 -15 -10 -12 -9 -14 5 -8 9 3 22 -1 28 -9 7 -8 8 -14 3 -14 -5 0 -10 -7 -10
-15 0 -9 4 -14 9 -13 5 2 10 8 10 13 0 6 4 15 10 22 5 7 7 16 4 21 -3 5 6 20
19 32 26 24 36 51 12 31 -11 -8 -17 -5 -27 17 -8 15 -15 37 -16 49 -3 21 -2
21 17 5 23 -20 24 -26 3 -18 -10 4 -14 1 -11 -6 2 -7 12 -12 21 -12 14 2 15
-1 4 -14 -11 -13 -10 -15 4 -9 9 3 22 -1 28 -8 14 -17 34 -9 26 10 -2 7 4 21
15 31 19 17 20 17 13 -2 -7 -16 -6 -17 8 -6 14 11 17 10 23 -7 3 -12 11 -21
16 -21 11 0 12 14 2 24 -11 10 -13 86 -3 86 4 0 21 -7 36 -15 20 -10 23 -15
12 -15 -21 0 -23 -11 -5 -29 10 -11 9 -12 -2 -6 -9 5 -12 3 -9 -5 5 -15 48
-22 48 -8 0 4 -5 8 -11 8 -5 0 -8 4 -5 9 4 5 0 12 -6 15 -7 3 -4 4 6 3 10 -1
21 4 24 12 3 8 0 11 -6 7 -16 -10 -25 13 -12 29 9 10 7 16 -7 24 -17 11 -17
11 1 9 10 -2 21 2 23 9 2 7 -3 10 -14 8 -10 -2 -24 -4 -31 -4 -7 -1 -12 -9
-10 -18 2 -13 -3 -17 -20 -16 -13 2 -25 -4 -29 -12 -4 -12 -9 -13 -19 -4 -8 6
-11 15 -8 20 3 5 1 9 -4 9 -5 0 -15 14 -22 30 -7 17 -17 30 -22 30 -5 0 -6 5
-3 10 3 6 1 10 -4 10 -6 0 -12 -3 -12 -7z m165 -98 c-4 -8 -11 -12 -16 -9 -6
4 -5 10 3 15 19 12 19 11 13 -6z m-261 -33 c-6 -14 -4 -15 8 -5 12 10 15 8 15
-6 0 -16 -4 -17 -23 -8 -19 8 -21 13 -11 25 11 13 9 14 -10 8 -14 -5 -22 -3
-22 4 0 6 5 8 10 5 6 -3 10 -1 10 6 0 9 3 9 14 -1 8 -6 12 -19 9 -28z m80 0
c-6 -14 -4 -15 8 -5 11 9 14 7 15 -13 1 -13 -2 -24 -8 -24 -5 0 -7 4 -3 9 3 5
-4 13 -15 16 -18 6 -19 9 -8 22 11 14 10 15 -10 9 -14 -5 -22 -3 -22 4 0 6 5
8 10 5 6 -3 10 -1 10 6 0 9 3 9 14 -1 8 -6 12 -19 9 -28z m79 -1 c-5 -13 -3
-14 9 -4 12 10 15 8 15 -6 0 -16 -4 -17 -23 -8 -19 8 -21 13 -11 25 11 13 9
14 -10 8 -14 -5 -22 -3 -22 4 0 6 4 9 9 5 5 -3 13 0 17 6 10 16 24 -10 16 -30z
m-29 -43 c-9 -10 -12 -22 -7 -30 6 -9 3 -9 -10 1 -16 13 -16 15 -1 23 11 6 14
16 9 30 -5 18 -4 19 9 7 13 -12 13 -16 0 -31z m-235 -73 c0 -13 -4 -23 -8 -20
-4 3 -7 16 -7 30 0 13 3 23 7 20 4 -3 8 -16 8 -30z m137 5 c-3 -4 -16 -7 -30
-7 -13 0 -23 3 -20 7 3 4 16 8 30 8 13 0 23 -4 20 -8z"/>
<path d="M4345 5644 c-11 -8 -19 -23 -17 -34 2 -10 -2 -21 -8 -25 -5 -3 -10
-11 -10 -16 0 -6 4 -8 9 -5 5 3 14 0 20 -8 9 -10 8 -15 -4 -20 -9 -3 -14 -10
-10 -15 3 -5 1 -12 -5 -16 -5 -3 -10 -11 -10 -17 0 -6 3 -8 7 -5 3 4 14 0 23
-8 15 -14 19 -14 31 2 12 15 12 16 -3 10 -9 -3 -22 1 -28 9 -10 11 -10 14 0
14 8 0 10 3 7 7 -4 3 3 18 15 31 17 19 19 24 6 19 -26 -9 -41 16 -17 31 10 7
19 17 19 23 0 8 -5 7 -15 -1 -9 -7 -15 -8 -15 -2 0 17 28 22 40 7 7 -8 15 -13
19 -11 3 2 7 -7 7 -20 1 -13 -2 -21 -7 -18 -5 3 -9 12 -9 20 0 17 -12 18 -28
2 -17 -17 -15 -33 2 -19 11 10 16 8 21 -8 7 -24 20 -27 32 -8 12 19 10 52 -4
66 -7 6 -13 9 -13 5 0 -4 -8 0 -17 9 -16 14 -20 14 -38 1z"/>
<path d="M5107 5645 c-4 -8 -13 -15 -21 -15 -8 0 -17 -6 -20 -12 -3 -7 -4 -4
-3 7 1 11 -5 21 -15 23 -24 5 -23 -9 2 -36 23 -24 41 -29 38 -10 -2 7 10 12
29 14 31 2 31 2 12 -19 -22 -24 -26 -45 -4 -27 8 6 19 9 24 6 11 -7 67 61 58
71 -10 9 -39 -6 -32 -17 8 -13 -12 -40 -29 -40 -6 0 -3 5 7 11 19 11 23 29 5
29 -6 0 -19 7 -28 15 -16 14 -18 14 -23 0z"/>
<path d="M4133 5636 c-26 -12 -26 -44 0 -52 15 -5 16 -8 5 -21 -11 -14 -10
-15 10 -9 14 5 22 3 22 -4 0 -6 -4 -9 -9 -6 -4 3 -16 -3 -26 -14 -10 -11 -13
-20 -7 -20 6 0 14 5 17 10 4 6 11 8 16 5 5 -4 12 1 15 10 5 12 10 13 20 4 8
-6 11 -15 8 -20 -3 -5 -1 -9 5 -9 17 0 21 17 6 30 -7 6 -11 19 -8 28 6 14 4
15 -9 5 -13 -11 -15 -8 -13 18 1 21 -2 28 -11 25 -8 -3 -11 0 -8 8 7 19 -7 24
-33 12z m23 -33 c21 -28 16 -39 -6 -13 -11 13 -20 25 -20 27 0 9 14 1 26 -14z"/>
<path d="M4436 5575 c-13 -20 -13 -25 -1 -35 8 -7 12 -16 9 -21 -3 -5 -1 -9 5
-9 17 0 21 17 6 30 -15 12 -10 40 7 40 6 0 5 -6 -2 -15 -15 -18 1 -20 18 -3
17 17 15 25 -8 31 -13 3 -24 -3 -34 -18z"/>
<path d="M4937 5584 c4 -10 -1 -17 -15 -21 -22 -5 -35 -26 -36 -58 -1 -13 -7
-19 -18 -17 -11 2 -18 -3 -18 -13 0 -8 0 -18 -1 -22 0 -4 4 -9 10 -11 7 -2 9
4 5 15 -5 14 -4 15 4 3 6 -8 8 -18 6 -22 -3 -4 2 -8 11 -8 9 0 14 4 10 9 -3 6
3 14 12 20 16 8 16 13 5 31 -7 12 -10 30 -7 40 6 18 8 19 30 4 19 -13 27 -13
44 -2 24 15 26 26 7 51 -20 26 -31 20 -12 -7 15 -23 14 -25 -5 -31 -12 -4 -26
-2 -31 3 -8 8 -4 9 11 5 13 -3 21 -1 21 6 0 7 -5 9 -10 6 -6 -4 -10 -3 -9 2 3
18 -2 33 -11 33 -5 0 -7 -7 -3 -16z m-33 -103 c3 -5 -1 -11 -9 -14 -9 -4 -12
-1 -8 9 6 16 10 17 17 5z"/>
<path d="M5010 5555 c0 -8 -9 -19 -20 -25 -12 -6 -17 -17 -14 -28 4 -10 2 -13
-3 -7 -13 16 -54 37 -60 31 -10 -10 6 -36 20 -30 8 3 20 -2 27 -11 16 -19 30
-19 30 -1 0 8 14 24 30 36 17 12 30 17 30 11 0 -6 4 -11 8 -11 14 0 7 43 -8
48 -8 3 -10 0 -5 -9 6 -11 5 -12 -6 -1 -17 16 -29 15 -29 -3z"/>
<path d="M3975 5521 c3 -6 -8 -20 -24 -32 -17 -12 -27 -27 -24 -35 3 -8 0 -21
-7 -29 -6 -8 -9 -18 -6 -23 3 -5 -4 -18 -15 -28 -19 -17 -20 -17 -13 2 7 17 6
18 -10 5 -16 -14 -16 -16 -2 -27 15 -10 15 -13 1 -24 -13 -11 -14 -10 -10 2 7
18 -20 44 -30 28 -3 -5 -12 -10 -18 -10 -7 0 -3 7 7 15 10 8 23 12 27 9 14 -8
10 10 -7 34 -8 12 -20 20 -25 16 -6 -3 -3 -12 8 -21 17 -13 17 -14 1 -9 -13 4
-18 0 -19 -14 -2 -28 -3 -34 -11 -46 -13 -21 4 -23 25 -4 11 11 23 17 26 14 3
-4 0 -9 -6 -11 -7 -3 -13 -9 -13 -14 0 -6 5 -7 10 -4 6 3 10 1 10 -5 0 -6 -8
-9 -17 -6 -10 3 -22 2 -28 -2 -18 -13 -15 -31 6 -37 15 -5 17 -10 10 -19 -8
-10 -4 -13 18 -13 31 0 41 15 46 71 1 15 8 32 16 37 8 5 10 9 5 9 -5 0 -1 9 8
19 10 11 15 24 12 29 -3 5 6 20 19 32 27 25 35 51 10 30 -9 -7 -15 -8 -15 -2
0 17 28 22 40 7 13 -15 30 -11 30 6 0 6 -4 8 -9 5 -5 -3 -14 0 -20 8 -9 10 -8
15 4 20 17 6 12 26 -6 26 -6 0 -8 -4 -4 -9z m-101 -220 c3 -5 -1 -11 -9 -14
-9 -4 -12 -1 -8 9 6 16 10 17 17 5z m-30 -26 c11 -8 18 -17 15 -19 -2 -3 -15
4 -29 14 -14 11 -20 20 -15 19 6 0 19 -6 29 -14z"/>
<path d="M4416 5521 c-3 -5 1 -14 9 -21 7 -6 11 -19 8 -28 -6 -15 -5 -15 10
-3 16 12 16 16 2 31 -8 9 -12 20 -8 23 3 4 1 7 -5 7 -6 0 -13 -4 -16 -9z"/>
<path d="M4930 5475 c0 -7 -8 -18 -17 -24 -10 -5 -17 -12 -15 -15 8 -19 0 -26
-18 -16 -23 12 -40 6 -40 -15 0 -19 20 -29 32 -17 6 6 16 8 23 6 10 -4 28 27
27 47 -1 3 19 5 44 4 27 0 43 3 41 10 -2 5 -11 9 -19 7 -9 -1 -21 5 -28 13
-16 19 -30 19 -30 0z m-60 -75 c0 -5 -2 -10 -4 -10 -3 0 -8 5 -11 10 -3 6 -1
10 4 10 6 0 11 -4 11 -10z"/>
<path d="M4397 5423 c-4 -3 -7 -11 -7 -16 0 -6 3 -7 7 -4 3 4 14 0 23 -8 15
-14 19 -14 31 1 12 15 12 17 -1 12 -8 -3 -22 1 -31 8 -9 8 -19 11 -22 7z"/>
<path d="M4924 5415 c-6 -15 2 -35 14 -35 4 0 13 4 21 9 12 8 12 12 2 25 -17
20 -30 20 -37 1z m26 -15 c0 -5 -2 -10 -4 -10 -3 0 -8 5 -11 10 -3 6 -1 10 4
10 6 0 11 -4 11 -10z"/>
<path d="M4349 5403 c-12 -15 -12 -16 3 -10 9 3 22 -1 28 -8 13 -16 30 -11 30
7 0 6 -3 8 -7 5 -3 -4 -14 0 -23 8 -15 14 -19 14 -31 -2z"/>
<path d="M4775 5370 c-10 -11 -14 -20 -9 -20 12 1 44 25 44 34 0 12 -17 6 -35
-14z"/>
<path d="M4352 5328 c-9 -9 -7 -17 10 -35 25 -27 43 -29 52 -7 8 21 8 21 -9
21 -10 0 -14 -6 -10 -16 5 -11 1 -11 -14 3 -11 10 -17 24 -14 32 6 17 1 18
-15 2z"/>
<path d="M4589 5323 c-12 -15 -12 -16 3 -10 9 3 22 -1 28 -8 13 -16 30 -11 30
7 0 6 -3 8 -7 5 -3 -4 -14 0 -23 8 -15 14 -19 14 -31 -2z"/>
<path d="M3793 5208 c0 -37 5 -57 16 -65 9 -6 13 -15 8 -19 -4 -4 -7 -2 -7 4
0 7 -4 12 -9 12 -5 0 -8 -11 -8 -25 0 -24 11 -34 20 -17 2 4 2 1 0 -6 -1 -8 3
-12 9 -10 17 6 17 37 2 64 -11 19 -10 23 14 34 15 7 22 15 15 17 -7 2 -20 0
-31 -6 -17 -9 -19 -7 -16 29 2 22 -1 40 -5 40 -5 0 -9 -24 -8 -52z"/>
<path d="M4630 5250 c0 -5 5 -10 10 -10 6 0 10 5 10 10 0 6 -4 10 -10 10 -5 0
-10 -4 -10 -10z"/>
<path d="M3820 5215 c-9 -11 -4 -12 24 -10 32 3 34 2 23 -16 -6 -10 -17 -19
-24 -19 -15 0 -17 -16 -4 -25 10 -6 9 -44 -2 -62 -8 -13 18 -37 33 -28 15 9
12 35 -5 41 -10 4 -12 11 -7 18 4 6 7 21 7 32 -2 16 2 20 15 17 25 -7 34 13
16 39 -18 25 -60 32 -76 13z m70 -35 c0 -5 -2 -10 -4 -10 -3 0 -8 5 -11 10 -3
6 -1 10 4 10 6 0 11 -4 11 -10z m-25 -100 c3 -5 1 -10 -4 -10 -6 0 -11 5 -11
10 0 6 2 10 4 10 3 0 8 -4 11 -10z"/>
<path d="M3911 5217 c-7 -7 -7 -15 0 -24 13 -15 -5 -43 -27 -43 -17 0 -18 -12
-1 -29 10 -11 9 -12 -2 -6 -9 5 -12 3 -9 -6 5 -16 37 -19 55 -6 9 7 9 14 -4
33 -8 13 -14 24 -12 25 2 0 15 3 28 5 33 6 36 11 20 31 -12 14 -12 15 0 9 9
-6 12 -5 9 4 -5 16 -44 20 -57 7z m33 -22 c3 -8 1 -15 -3 -15 -5 0 -11 7 -15
15 -3 8 -1 15 3 15 5 0 11 -7 15 -15z m-30 -70 c3 -8 1 -15 -3 -15 -5 0 -11 7
-15 15 -3 8 -1 15 3 15 5 0 11 -7 15 -15z"/>
<path d="M3986 5211 c-7 -9 -11 -22 -9 -29 5 -13 -36 -33 -50 -25 -5 3 -4 -4
3 -16 6 -12 18 -25 26 -28 8 -3 14 -10 14 -15 0 -6 -6 -5 -15 2 -11 9 -15 9
-15 1 0 -17 30 -25 43 -12 9 10 7 17 -10 31 -13 10 -23 21 -23 25 0 4 8 1 17
-6 15 -12 16 -12 10 3 -4 12 -2 15 7 12 9 -4 13 4 12 23 -1 22 4 28 21 29 12
1 20 -3 17 -7 -3 -5 0 -9 5 -9 6 0 11 -5 11 -11 0 -8 -5 -8 -15 1 -11 9 -15 9
-15 1 0 -16 29 -26 42 -13 14 14 -15 55 -42 57 -11 1 -26 -5 -34 -14z"/>
<path d="M4205 5199 c-11 -17 1 -21 15 -4 8 9 8 15 2 15 -6 0 -14 -5 -17 -11z"/>
<path d="M4283 5183 c-9 -18 -9 -30 -3 -38 6 -7 8 -19 5 -27 -3 -8 3 -23 15
-33 12 -11 20 -13 20 -6 0 6 -7 14 -15 17 -11 5 -13 10 -5 19 5 6 7 15 3 18
-3 4 2 16 12 27 14 16 15 22 5 35 -17 21 -23 19 -37 -12z m32 -3 c3 -5 1 -10
-4 -10 -6 0 -11 5 -11 10 0 6 2 10 4 10 3 0 8 -4 11 -10z"/>
<path d="M4000 5189 c0 -5 5 -7 10 -4 6 3 10 8 10 11 0 2 -4 4 -10 4 -5 0 -10
-5 -10 -11z"/>
<path d="M4003 5162 c4 -5 0 -15 -8 -22 -12 -10 -13 -16 -3 -27 9 -11 8 -18
-6 -31 -13 -14 -20 -14 -36 -4 -25 15 -33 15 -24 0 6 -10 4 -10 -7 0 -17 16
-29 15 -29 -2 0 -7 -6 -19 -14 -26 -12 -9 -21 -7 -45 11 -17 12 -34 19 -38 14
-5 -4 -3 -10 4 -12 6 -2 9 -15 7 -29 -3 -17 -1 -23 6 -19 6 4 20 -1 31 -11 22
-20 27 -17 33 17 2 13 5 26 5 28 1 2 12 -4 25 -12 22 -15 25 -15 37 -1 11 13
10 15 -2 14 -26 -4 -39 0 -39 12 0 9 3 9 12 0 8 -8 15 -9 25 -1 12 11 18 1 14
-23 0 -5 4 -8 9 -8 6 0 10 -5 10 -11 0 -8 -5 -8 -15 1 -11 9 -15 9 -15 1 0
-16 29 -26 42 -13 7 7 6 17 -1 31 -7 12 -8 21 -4 21 5 0 14 -13 20 -29 8 -23
15 -28 31 -24 13 3 20 13 19 24 -1 11 -6 17 -12 15 -5 -2 -9 -9 -7 -15 1 -6
-2 -11 -8 -11 -13 0 -12 11 4 32 10 13 15 15 24 6 9 -9 12 -9 12 0 0 22 -32
26 -46 7 -8 -10 -14 -13 -14 -7 0 7 -1 15 -2 19 -2 3 8 8 21 10 34 5 37 10 17
32 -9 10 -16 24 -14 31 2 7 -3 15 -11 18 -8 2 -11 0 -8 -6z m21 -62 c-6 -5
-24 21 -24 34 0 6 6 1 14 -10 8 -10 12 -21 10 -24z m-180 -65 c11 -8 18 -17
15 -19 -2 -3 -15 4 -29 14 -14 11 -20 20 -15 19 6 0 19 -6 29 -14z"/>
<path d="M4055 5156 c-11 -6 -22 -12 -24 -13 -2 -2 3 -11 13 -22 9 -10 16 -24
14 -32 -2 -7 5 -15 15 -17 9 -2 17 2 17 8 0 6 -6 8 -12 4 -7 -4 -10 -3 -5 1 4
5 0 19 -8 32 -9 13 -12 23 -7 23 5 0 14 -10 19 -22 l11 -23 12 27 c10 22 16
25 27 17 9 -9 13 -8 13 0 0 22 -32 25 -48 5 -12 -16 -14 -16 -9 -2 8 23 -3 28
-28 14z"/>
<path d="M4396 5131 c-4 -7 -5 -15 -2 -18 9 -9 19 4 14 18 -4 11 -6 11 -12 0z"/>
<path d="M4098 5088 c9 -9 5 -16 -18 -29 -19 -12 -28 -24 -24 -34 4 -10 -2
-18 -19 -24 -14 -5 -27 -16 -31 -23 -3 -8 -5 -7 -3 4 2 20 -2 22 -25 13 -10
-4 -29 1 -45 12 -48 34 -50 34 -49 6 1 -14 8 -29 16 -31 13 -5 13 -3 1 11 -9
11 -10 17 -2 17 6 0 11 -5 11 -11 0 -5 6 -7 13 -3 6 4 4 -2 -6 -13 -16 -19
-17 -21 0 -34 15 -12 16 -12 10 3 -9 26 16 41 31 17 7 -10 17 -19 23 -19 8 0
7 5 -1 15 -7 9 -8 15 -2 15 17 0 21 -28 6 -41 -14 -11 -13 -15 8 -31 13 -10
19 -17 13 -16 -5 1 -23 -6 -38 -16 -21 -14 -31 -16 -40 -7 -6 6 -8 11 -4 11 4
0 3 9 -3 20 -6 11 -7 20 -3 19 14 -2 53 13 53 20 0 10 -22 31 -33 31 -5 0 -4
-6 2 -13 8 -11 3 -18 -28 -33 -28 -13 -38 -25 -38 -41 0 -46 57 -50 123 -8 44
28 54 53 24 63 -13 5 -13 3 -1 -11 9 -11 10 -17 2 -17 -6 0 -11 5 -11 11 0 5
-4 7 -10 4 -5 -3 0 9 13 28 13 20 26 31 32 27 10 -8 37 13 29 24 -2 3 2 2 8
-4 18 -15 25 -12 31 11 3 12 0 22 -9 26 -12 4 -12 7 2 18 19 13 13 45 -8 45
-9 0 -9 -3 0 -12z m2 -69 c0 -4 -7 -6 -15 -3 -8 4 -15 10 -15 15 0 4 7 6 15 3
8 -4 15 -10 15 -15z m-190 -129 c0 -5 -2 -10 -4 -10 -3 0 -8 5 -11 10 -3 6 -1
10 4 10 6 0 11 -4 11 -10z m-5 -28 c-3 -3 -11 0 -18 7 -9 10 -8 11 6 5 10 -3
15 -9 12 -12z"/>
<path d="M4127 5068 c-8 -29 -6 -34 13 -30 11 2 11 0 -2 -8 -20 -12 -24 -35
-7 -46 6 -3 15 -2 21 4 6 6 16 8 23 6 16 -7 26 31 12 45 -6 6 -19 11 -29 11
-10 0 -18 4 -18 10 0 5 6 7 14 4 8 -3 17 -1 21 5 3 6 2 11 -4 11 -5 0 -16 3
-24 6 -9 3 -17 -3 -20 -18z m53 -49 c0 -5 -5 -7 -10 -4 -6 3 -13 -1 -16 -9 -3
-9 -10 -13 -16 -10 -5 3 -1 12 9 20 22 16 33 18 33 3z"/>
<path d="M3939 4918 c-5 -11 -5 -48 0 -48 17 0 43 28 37 38 -6 10 -33 17 -37
10z m26 -18 c3 -5 1 -10 -4 -10 -6 0 -11 5 -11 10 0 6 2 10 4 10 3 0 8 -4 11
-10z"/>
</g>
</svg>
